<svg width="44" height="44" viewBox="0 0 44 44" fill="none" xmlns="http://www.w3.org/2000/svg">
<path d="M21.9996 2.07373C10.9542 2.07373 2 11.028 2 22.0733C2 31.4523 8.45747 39.3226 17.1685 41.4842V28.1852H13.0446V22.0733H17.1685V19.4398C17.1685 12.6327 20.2492 9.47758 26.9323 9.47758C28.1995 9.47758 30.3858 9.72638 31.2802 9.97437V15.5143C30.8082 15.4647 29.9882 15.4399 28.9699 15.4399C25.6907 15.4399 24.4235 16.6822 24.4235 19.9118V22.0733H30.9562L29.8338 28.1852H24.4235V41.9265C34.3265 40.7306 42 32.2987 42 22.0733C41.9992 11.028 33.045 2.07373 21.9996 2.07373Z" fill="#FEFEFE"/>
</svg>
