<svg width="42" height="42" viewBox="0 0 42 42" fill="none" xmlns="http://www.w3.org/2000/svg">
<g clip-path="url(#clip0_40_14824)">
<path d="M21 5.42148C26.0766 5.42148 26.6777 5.44375 28.6742 5.53281C30.5297 5.61445 31.5316 5.92617 32.1996 6.18594C33.0828 6.52734 33.7211 6.94297 34.3816 7.60352C35.0496 8.27148 35.4578 8.90234 35.7992 9.78555C36.059 10.4535 36.3707 11.4629 36.4523 13.3109C36.5414 15.3148 36.5637 15.916 36.5637 20.9852C36.5637 26.0617 36.5414 26.6629 36.4523 28.6594C36.3707 30.5148 36.059 31.5168 35.7992 32.1848C35.4578 33.068 35.0422 33.7063 34.3816 34.3668C33.7137 35.0348 33.0828 35.443 32.1996 35.7844C31.5316 36.0441 30.5223 36.3559 28.6742 36.4375C26.6703 36.5266 26.0691 36.5488 21 36.5488C15.9234 36.5488 15.3223 36.5266 13.3258 36.4375C11.4703 36.3559 10.4684 36.0441 9.80039 35.7844C8.91719 35.443 8.27891 35.0273 7.61836 34.3668C6.95039 33.6988 6.54219 33.068 6.20078 32.1848C5.94102 31.5168 5.6293 30.5074 5.54766 28.6594C5.45859 26.6555 5.43633 26.0543 5.43633 20.9852C5.43633 15.9086 5.45859 15.3074 5.54766 13.3109C5.6293 11.4555 5.94102 10.4535 6.20078 9.78555C6.54219 8.90234 6.95781 8.26406 7.61836 7.60352C8.28633 6.93555 8.91719 6.52734 9.80039 6.18594C10.4684 5.92617 11.4777 5.61445 13.3258 5.53281C15.3223 5.44375 15.9234 5.42148 21 5.42148ZM21 2C15.8418 2 15.1961 2.02227 13.1699 2.11133C11.1512 2.20039 9.76328 2.52695 8.56094 2.99453C7.30664 3.48438 6.24531 4.13008 5.19141 5.19141C4.13008 6.24531 3.48438 7.30664 2.99453 8.55352C2.52695 9.76328 2.20039 11.1437 2.11133 13.1625C2.02227 15.1961 2 15.8418 2 21C2 26.1582 2.02227 26.8039 2.11133 28.8301C2.20039 30.8488 2.52695 32.2367 2.99453 33.4391C3.48438 34.6934 4.13008 35.7547 5.19141 36.8086C6.24531 37.8625 7.30664 38.5156 8.55352 38.998C9.76328 39.4656 11.1438 39.7922 13.1625 39.8812C15.1887 39.9703 15.8344 39.9926 20.9926 39.9926C26.1508 39.9926 26.7965 39.9703 28.8227 39.8812C30.8414 39.7922 32.2293 39.4656 33.4316 38.998C34.6785 38.5156 35.7398 37.8625 36.7938 36.8086C37.8477 35.7547 38.5008 34.6934 38.9832 33.4465C39.4508 32.2367 39.7773 30.8563 39.8664 28.8375C39.9555 26.8113 39.9777 26.1656 39.9777 21.0074C39.9777 15.8492 39.9555 15.2035 39.8664 13.1773C39.7773 11.1586 39.4508 9.7707 38.9832 8.56836C38.5156 7.30664 37.8699 6.24531 36.8086 5.19141C35.7547 4.1375 34.6934 3.48438 33.4465 3.00195C32.2367 2.53437 30.8563 2.20781 28.8375 2.11875C26.8039 2.02227 26.1582 2 21 2Z" fill="#FEFEFE"/>
<path d="M21 11.2402C15.6117 11.2402 11.2402 15.6117 11.2402 21C11.2402 26.3883 15.6117 30.7598 21 30.7598C26.3883 30.7598 30.7598 26.3883 30.7598 21C30.7598 15.6117 26.3883 11.2402 21 11.2402ZM21 27.3309C17.5043 27.3309 14.6691 24.4957 14.6691 21C14.6691 17.5043 17.5043 14.6691 21 14.6691C24.4957 14.6691 27.3309 17.5043 27.3309 21C27.3309 24.4957 24.4957 27.3309 21 27.3309Z" fill="#FEFEFE"/>
<path d="M33.4242 10.8542C33.4242 12.1159 32.4 13.1327 31.1457 13.1327C29.884 13.1327 28.8672 12.1085 28.8672 10.8542C28.8672 9.59248 29.8914 8.57568 31.1457 8.57568C32.4 8.57568 33.4242 9.5999 33.4242 10.8542Z" fill="#FEFEFE"/>
</g>
<defs>
<clipPath id="clip0_40_14824">
<rect width="38" height="38" fill="white" transform="translate(2 2)"/>
</clipPath>
</defs>
</svg>
