<svg width="44" height="44" viewBox="0 0 44 44" fill="none" xmlns="http://www.w3.org/2000/svg">
<path d="M39.0391 2H4.95312C3.32031 2 2 3.28906 2 4.88281V39.1094C2 40.7031 3.32031 42 4.95312 42H39.0391C40.6719 42 42 40.7031 42 39.1172V4.88281C42 3.28906 40.6719 2 39.0391 2ZM13.8672 36.0859H7.92969V16.9922H13.8672V36.0859ZM10.8984 14.3906C8.99219 14.3906 7.45312 12.8516 7.45312 10.9531C7.45312 9.05469 8.99219 7.51562 10.8984 7.51562C12.7969 7.51562 14.3359 9.05469 14.3359 10.9531C14.3359 12.8438 12.7969 14.3906 10.8984 14.3906ZM36.0859 36.0859H30.1562V26.8047C30.1562 24.5938 30.1172 21.7422 27.0703 21.7422C23.9844 21.7422 23.5156 24.1562 23.5156 26.6484V36.0859H17.5938V16.9922H23.2812V19.6016H23.3594C24.1484 18.1016 26.0859 16.5156 28.9688 16.5156C34.9766 16.5156 36.0859 20.4688 36.0859 25.6094V36.0859Z" fill="#FEFEFE"/>
</svg>
