<svg width="33" height="33" viewBox="0 0 33 33" fill="none" xmlns="http://www.w3.org/2000/svg">
<path d="M0.5 11.0688C0.5 9.10273 0.500402 7.65879 0.595039 6.51922C0.689179 5.38562 0.873975 4.59806 1.21774 3.93629C1.82257 2.77194 2.77194 1.82257 3.93629 1.21774C4.59806 0.873975 5.38562 0.689179 6.51922 0.595039C7.65879 0.500402 9.10273 0.5 11.0688 0.5H21.9312C23.8973 0.5 25.3412 0.500402 26.4808 0.595039C27.6144 0.689179 28.4019 0.873975 29.0637 1.21774C30.2281 1.82257 31.1774 2.77194 31.7823 3.93629C32.126 4.59806 32.3108 5.38562 32.405 6.51922C32.4996 7.65879 32.5 9.10273 32.5 11.0688V21.9312C32.5 23.8973 32.4996 25.3412 32.405 26.4808C32.3108 27.6144 32.126 28.4019 31.7823 29.0637C31.1774 30.2281 30.2281 31.1774 29.0637 31.7823C28.4019 32.126 27.6144 32.3108 26.4808 32.405C25.3412 32.4996 23.8973 32.5 21.9312 32.5H11.0688C9.10273 32.5 7.65879 32.4996 6.51922 32.405C5.38562 32.3108 4.59806 32.126 3.93629 31.7823C2.77194 31.1774 1.82257 30.2281 1.21774 29.0637C0.873975 28.4019 0.689179 27.6144 0.595039 26.4808C0.500402 25.3412 0.5 23.8973 0.5 21.9312V11.0688Z" stroke="#AE529F"/>
<path d="M7.40718 10.2482C8.98823 10.2482 10.2699 8.9665 10.2699 7.38545C10.2699 5.8044 8.98823 4.52271 7.40718 4.52271C5.82613 4.52271 4.54443 5.8044 4.54443 7.38545C4.54443 8.9665 5.82613 10.2482 7.40718 10.2482Z" fill="#AE529F"/>
<path d="M12.8917 12.3638H17.6362V14.5373C17.6362 14.5373 18.9237 11.9624 22.4267 11.9624C25.5516 11.9624 28.1402 13.5017 28.1402 18.1939V28.0884H23.2236V19.3929C23.2236 16.6249 21.7458 16.3205 20.6198 16.3205C18.2828 16.3205 17.8828 18.3362 17.8828 19.7539V28.0884H12.8917V12.3638Z" fill="#AE529F"/>
<path d="M4.91165 12.3638H9.90271V28.0884H4.91165V12.3638Z" fill="#AE529F"/>
</svg>
