<svg width="52" height="38" viewBox="0 0 52 38" fill="none" xmlns="http://www.w3.org/2000/svg">
<path d="M49.5219 9.40449C49.5219 9.40449 49.0531 6.09512 47.6094 4.64199C45.7812 2.72949 43.7375 2.72012 42.8 2.60762C36.0875 2.12012 26.0094 2.12012 26.0094 2.12012H25.9906C25.9906 2.12012 15.9125 2.12012 9.2 2.60762C8.2625 2.72012 6.21875 2.72949 4.39062 4.64199C2.94688 6.09512 2.4875 9.40449 2.4875 9.40449C2.4875 9.40449 2 13.2951 2 17.1764V20.8139C2 24.6951 2.47812 28.5857 2.47812 28.5857C2.47812 28.5857 2.94687 31.8951 4.38125 33.3482C6.20937 35.2607 8.60938 35.1951 9.67813 35.4014C13.5219 35.767 26 35.8795 26 35.8795C26 35.8795 36.0875 35.8607 42.8 35.3826C43.7375 35.2701 45.7812 35.2607 47.6094 33.3482C49.0531 31.8951 49.5219 28.5857 49.5219 28.5857C49.5219 28.5857 50 24.7045 50 20.8139V17.1764C50 13.2951 49.5219 9.40449 49.5219 9.40449ZM21.0406 25.2295V11.7389L34.0062 18.5076L21.0406 25.2295Z" fill="#FEFEFE"/>
</svg>
