<svg width="67" height="67" viewBox="0 0 67 67" fill="none" xmlns="http://www.w3.org/2000/svg">
<path fill-rule="evenodd" clip-rule="evenodd" d="M33.0145 66.011C24.2634 66.011 16.3139 62.5932 10.4088 57.0258L10.3998 57.0343C4.00112 51.0126 9.68675e-06 42.4776 1.05148e-05 33.0054C1.13429e-05 23.5332 4.00112 14.9982 10.3998 8.97649L10.4089 8.98512C16.3117 3.41775 24.2634 -5.70555e-05 33.0145 -5.62904e-05C39.7518 -5.57014e-05 46.0112 2.0265 51.2325 5.49457L51.2325 60.5164C46.0112 63.9867 39.7495 66.011 33.0145 66.011ZM51.2325 5.47341C60.1384 11.3885 66.0111 21.5091 66.0111 33.0054C66.0111 44.5017 60.1384 54.6223 51.2325 60.5374L51.2325 5.47341Z" fill="url(#paint0_linear_244_134404)"/>
<defs>
<linearGradient id="paint0_linear_244_134404" x1="66.0111" y1="-5.34058e-05" x2="76.9523" y2="48.735" gradientUnits="userSpaceOnUse">
<stop stop-color="#1E1E1E"/>
<stop offset="1" stop-color="#AE529F"/>
</linearGradient>
</defs>
</svg>
