<svg width="41" height="41" viewBox="0 0 41 41" fill="none" xmlns="http://www.w3.org/2000/svg">
<path fill-rule="evenodd" clip-rule="evenodd" d="M20.5055 41.0001C15.0702 41.0001 10.1327 38.8772 6.46506 35.4193L6.45938 35.4246C2.48513 31.6845 8.90723e-06 26.3834 9.42156e-06 20.5001C9.93589e-06 14.6168 2.48513 9.31569 6.45938 5.57557L6.46501 5.58087C10.1313 2.12291 15.0702 6.2583e-05 20.5055 6.30582e-05C24.6901 6.3424e-05 28.5779 1.25878 31.8209 3.41282L31.8209 37.5873C28.5779 39.7427 24.6887 41.0001 20.5055 41.0001ZM31.8209 3.39968C37.3524 7.07362 41 13.3596 41 20.5C41 27.6405 37.3524 33.9264 31.8209 37.6003L31.8209 3.39968Z" fill="url(#paint0_linear_244_134410)"/>
<defs>
<linearGradient id="paint0_linear_244_134410" x1="41" y1="6.54679e-05" x2="47.7957" y2="30.2698" gradientUnits="userSpaceOnUse">
<stop stop-color="#AE529F"/>
<stop offset="1" stop-color="#C1FBF3"/>
</linearGradient>
</defs>
</svg>
