<svg width="534" height="553" viewBox="0 0 534 553" fill="none" xmlns="http://www.w3.org/2000/svg">
<g opacity="0.2" filter="url(#filter0_f_244_134398)">
<path fill-rule="evenodd" clip-rule="evenodd" d="M258.256 458.011C210.056 458.011 166.271 439.186 133.746 408.521L133.696 408.568C98.4522 375.401 76.4143 328.391 76.4143 276.218C76.4143 224.046 98.4522 177.035 133.696 143.868L133.746 143.915C166.258 113.25 210.056 94.4253 258.256 94.4253C295.365 94.4253 329.841 105.587 358.6 124.689L358.6 427.747C329.841 446.861 295.353 458.011 258.256 458.011ZM358.6 124.574C407.653 157.154 440 212.897 440 276.218C440 339.54 407.653 395.283 358.6 427.863L358.6 124.574Z" fill="url(#paint0_linear_244_134398)"/>
</g>
<defs>
<filter id="filter0_f_244_134398" x="-17.5857" y="0.425262" width="551.586" height="551.586" filterUnits="userSpaceOnUse" color-interpolation-filters="sRGB">
<feFlood flood-opacity="0" result="BackgroundImageFix"/>
<feBlend mode="normal" in="SourceGraphic" in2="BackgroundImageFix" result="shape"/>
<feGaussianBlur stdDeviation="47" result="effect1_foregroundBlur_244_134398"/>
</filter>
<linearGradient id="paint0_linear_244_134398" x1="440" y1="94.4253" x2="500.263" y2="362.855" gradientUnits="userSpaceOnUse">
<stop stop-color="#1E1E1E"/>
<stop offset="1" stop-color="#AE529F"/>
</linearGradient>
</defs>
</svg>
