<svg width="76" height="50" viewBox="0 0 76 50" fill="none" xmlns="http://www.w3.org/2000/svg">
<g clip-path="url(#clip0_11_35490)">
<path d="M26.32 29.0073H26.9694V30.9502H29.3173V29.0073H29.9736V33.6541H29.3173V31.5262H26.9694V33.6541H26.32V29.0073Z" fill="white"/>
<path d="M31.7506 33.6541H31.1013V29.0073H32.5895C32.8137 29.0073 33.0239 29.0305 33.225 29.0767C33.426 29.123 33.6017 29.197 33.7542 29.2964C33.9044 29.3982 34.0246 29.5301 34.1124 29.6943C34.2002 29.8585 34.2441 30.0597 34.2441 30.2957C34.2441 30.638 34.1401 30.9132 33.9298 31.1237C33.7195 31.3342 33.4492 31.4683 33.1164 31.5239L34.4151 33.6564H33.6271L32.4462 31.5886H31.7506V33.6564V33.6541ZM31.7506 31.0404H32.4994C32.6519 31.0404 32.7952 31.0266 32.9246 31.0011C33.0563 30.9757 33.1695 30.9317 33.2689 30.8739C33.3683 30.8138 33.4445 30.7374 33.5023 30.6449C33.5601 30.5501 33.5878 30.4344 33.5878 30.2933C33.5878 30.1523 33.5601 30.0366 33.5023 29.9418C33.4445 29.8469 33.3706 29.7729 33.2758 29.7151C33.1811 29.6573 33.0725 29.618 32.9454 29.5948C32.8183 29.5717 32.6842 29.5578 32.5456 29.5578H31.753V31.0404H31.7506Z" fill="white"/>
<path d="M36.5919 32.8145H36.6127L38.0085 29.0073H38.711L36.8877 33.6541H36.2846L34.4752 29.0073H35.1962L36.5919 32.8145Z" fill="white"/>
<path d="M39.4505 33.6541H38.7295L40.7423 29.0073H41.3316L43.3259 33.6541H42.591L42.1196 32.5115H39.915L39.4482 33.6541H39.4505ZM40.1461 31.9402H41.8839L41.0173 29.7614L40.1461 31.9402Z" fill="white"/>
<path d="M44.9597 33.6541H44.3103V29.5786H42.8221V29.0073H46.4479V29.5786H44.9597V33.6541Z" fill="white"/>
<path d="M49.3735 29.8653C49.2811 29.7381 49.1563 29.634 48.9991 29.5531C48.842 29.4721 48.6641 29.4328 48.4676 29.4328C48.3636 29.4328 48.2573 29.4467 48.1487 29.4745C48.0401 29.5022 47.9454 29.5485 47.8576 29.6132C47.7697 29.6757 47.6981 29.7566 47.645 29.8492C47.5895 29.944 47.5641 30.055 47.5641 30.1869C47.5641 30.3187 47.5895 30.4205 47.6403 30.506C47.6912 30.5916 47.7582 30.6633 47.8437 30.7235C47.9292 30.7836 48.0286 30.8322 48.1464 30.8738C48.2643 30.9154 48.3868 30.9571 48.5162 31.001C48.6733 31.0496 48.8328 31.1028 48.9945 31.1652C49.1563 31.2277 49.3019 31.3087 49.4336 31.4081C49.5653 31.5076 49.6716 31.6348 49.7548 31.7851C49.838 31.9355 49.8796 32.1275 49.8796 32.3588C49.8796 32.5901 49.8357 32.8075 49.7456 32.9856C49.6554 33.1637 49.5376 33.3094 49.3874 33.425C49.2395 33.5407 49.0662 33.6286 48.872 33.6841C48.6779 33.7419 48.4769 33.7697 48.2712 33.7697C47.9777 33.7697 47.6958 33.7119 47.4208 33.5985C47.1481 33.4852 46.9216 33.3163 46.7414 33.0943L47.2475 32.6687C47.3561 32.8306 47.504 32.9624 47.6865 33.0619C47.8691 33.1637 48.0702 33.2122 48.2828 33.2122C48.3914 33.2122 48.5023 33.1961 48.6109 33.166C48.7195 33.1359 48.8189 33.0873 48.909 33.0226C48.9991 32.9578 49.0708 32.8746 49.1285 32.7774C49.1863 32.6803 49.214 32.56 49.214 32.4189C49.214 32.2778 49.184 32.1621 49.1262 32.0673C49.0662 31.9725 48.9876 31.8938 48.8859 31.8268C48.7842 31.762 48.6687 31.7042 48.5346 31.6602C48.4006 31.614 48.2597 31.5677 48.1118 31.5191C47.9639 31.4752 47.816 31.422 47.6727 31.3572C47.5294 31.2948 47.4 31.2138 47.2868 31.1144C47.1735 31.0149 47.0811 30.8946 47.0118 30.7489C46.9424 30.6055 46.9078 30.4251 46.9078 30.21C46.9078 29.9787 46.954 29.7798 47.0487 29.6132C47.1435 29.4467 47.266 29.3102 47.4162 29.1992C47.5664 29.0905 47.7374 29.0095 47.9269 28.9587C48.1164 28.9078 48.3082 28.8823 48.5 28.8823C48.7704 28.8823 49.0246 28.9309 49.2603 29.0257C49.496 29.1229 49.6855 29.2501 49.8311 29.412L49.3712 29.8584L49.3735 29.8653Z" fill="white"/>
<path d="M51.4464 31.0543H51.4602L53.5331 29.0073H54.432L52.1766 31.1353L54.5707 33.6564H53.6394L51.4625 31.2532H51.4487V33.6564H50.7993V29.0096H51.4487V31.0566L51.4464 31.0543Z" fill="white"/>
<path d="M55.2316 33.6541H54.5106L56.5234 29.0073H57.1127L59.107 33.6541H58.3721L57.9007 32.5115H55.6961L55.2293 33.6541H55.2316ZM55.9272 31.9402H57.665L56.7984 29.7614L55.9272 31.9402Z" fill="white"/>
<path d="M29.8234 38.0788C29.6824 37.9262 29.5044 37.8036 29.2895 37.7111C29.0723 37.6185 28.832 37.5723 28.5639 37.5723C28.2959 37.5723 28.0486 37.6209 27.8291 37.7203C27.6095 37.8198 27.4246 37.9539 27.2721 38.1251C27.1196 38.2963 27.0018 38.4929 26.9186 38.7195C26.8354 38.9439 26.7938 39.1844 26.7938 39.4389C26.7938 39.6933 26.8354 39.9408 26.9186 40.1675C27.0018 40.3941 27.1196 40.5931 27.2721 40.7619C27.4246 40.9308 27.6141 41.0626 27.836 41.1597C28.0578 41.2569 28.3074 41.3031 28.5847 41.3031C28.8042 41.3031 29.0053 41.2823 29.1879 41.243C29.3704 41.2037 29.5299 41.1459 29.6662 41.0718V39.7789H28.6356V39.2284H30.3086V41.4789C30.0637 41.6108 29.7979 41.7102 29.5091 41.7819C29.2202 41.8513 28.9059 41.886 28.5639 41.886C28.2011 41.886 27.8683 41.8259 27.5633 41.7056C27.2583 41.5853 26.9971 41.4165 26.7799 41.1991C26.5604 40.9816 26.3917 40.7249 26.2692 40.4242C26.1467 40.1235 26.0866 39.7951 26.0866 39.4366C26.0866 39.078 26.149 38.7427 26.2738 38.442C26.3986 38.1413 26.5719 37.8869 26.7915 37.6741C27.0133 37.4613 27.2744 37.297 27.5749 37.1791C27.8753 37.0611 28.2034 37.001 28.5593 37.001C28.9313 37.001 29.2618 37.0565 29.553 37.1652C29.8442 37.2739 30.0845 37.4219 30.2786 37.6047L29.8257 38.0765L29.8234 38.0788Z" fill="white"/>
<path d="M36.1067 39.4366C36.1067 39.7951 36.0443 40.1258 35.9195 40.4242C35.7947 40.7249 35.6237 40.9816 35.4042 41.1991C35.1846 41.4165 34.9258 41.5853 34.6231 41.7056C34.3203 41.8259 33.9945 41.886 33.6386 41.886C33.2828 41.886 32.9569 41.8259 32.6588 41.7056C32.3607 41.5853 32.0996 41.4165 31.8824 41.1991C31.6628 40.9816 31.4941 40.7249 31.3716 40.4242C31.2492 40.1235 31.1891 39.7951 31.1891 39.4366C31.1891 39.078 31.2492 38.7427 31.3716 38.442C31.4941 38.1413 31.6651 37.8869 31.8824 37.6741C32.1019 37.4613 32.3607 37.297 32.6588 37.1791C32.9569 37.0611 33.2851 37.001 33.6386 37.001C33.9922 37.001 34.3203 37.0611 34.6231 37.1791C34.9258 37.297 35.1846 37.4636 35.4042 37.6741C35.6237 37.8869 35.7947 38.1436 35.9195 38.442C36.0443 38.7427 36.1067 39.0734 36.1067 39.4366ZM35.4042 39.4366C35.4042 39.1821 35.3626 38.9439 35.2794 38.7172C35.1962 38.4929 35.0783 38.2939 34.9258 38.1228C34.7733 37.9516 34.5884 37.8175 34.3712 37.718C34.154 37.6185 33.9113 37.57 33.6409 37.57C33.3706 37.57 33.1325 37.6185 32.9153 37.718C32.6981 37.8175 32.5155 37.9516 32.3653 38.1228C32.2151 38.2939 32.0973 38.4905 32.0141 38.7172C31.9309 38.9416 31.8893 39.1821 31.8893 39.4366C31.8893 39.691 31.9309 39.9385 32.0141 40.1652C32.0973 40.3918 32.2151 40.5907 32.3676 40.7596C32.5202 40.9284 32.705 41.0603 32.9176 41.1574C33.1325 41.2546 33.3729 41.3008 33.6386 41.3008C33.9044 41.3008 34.147 41.2523 34.3666 41.1574C34.5861 41.0603 34.771 40.9284 34.9235 40.7596C35.076 40.5907 35.1939 40.3941 35.2771 40.1652C35.3602 39.9385 35.4018 39.6956 35.4018 39.4366H35.4042Z" fill="white"/>
<path d="M39.3003 37.9794C39.2079 37.8521 39.0831 37.7481 38.926 37.6671C38.7688 37.5862 38.5909 37.5468 38.3944 37.5468C38.2905 37.5468 38.1842 37.5607 38.0755 37.5885C37.9692 37.6162 37.8722 37.6625 37.7844 37.7272C37.6966 37.7897 37.6249 37.8707 37.5718 37.9632C37.5163 38.058 37.4909 38.169 37.4909 38.3009C37.4909 38.4327 37.5163 38.5345 37.5671 38.6201C37.618 38.7056 37.685 38.7773 37.7705 38.8375C37.856 38.8976 37.9554 38.9462 38.0732 38.9878C38.1911 39.0295 38.3136 39.0711 38.443 39.115C38.6001 39.1636 38.7596 39.2168 38.9213 39.2793C39.0831 39.3417 39.2287 39.4227 39.3604 39.5221C39.4921 39.6216 39.5984 39.7488 39.6816 39.8991C39.7648 40.0495 39.8064 40.2415 39.8064 40.4728C39.8064 40.7041 39.7625 40.9215 39.6724 41.0996C39.5822 41.2777 39.4644 41.4234 39.3142 41.5391C39.1663 41.6547 38.993 41.7426 38.7989 41.7981C38.6047 41.8559 38.4037 41.8837 38.198 41.8837C37.9045 41.8837 37.6226 41.8259 37.3476 41.7125C37.0749 41.5992 36.8485 41.4304 36.6682 41.2083L37.1743 40.7827C37.2829 40.9446 37.4308 41.0765 37.6134 41.1759C37.7959 41.2777 37.997 41.3263 38.2096 41.3263C38.3182 41.3263 38.4291 41.3101 38.5377 41.28C38.6463 41.2499 38.7457 41.2014 38.8358 41.1366C38.926 41.0718 38.9999 40.9886 39.0554 40.8914C39.1108 40.7943 39.1409 40.674 39.1409 40.5329C39.1409 40.3918 39.1108 40.2762 39.0531 40.1813C38.993 40.0865 38.9144 40.0079 38.8127 39.9408C38.711 39.876 38.5955 39.8182 38.4615 39.7742C38.3274 39.728 38.1865 39.6817 38.0386 39.6332C37.8907 39.5892 37.7428 39.536 37.5995 39.4712C37.4562 39.4088 37.3268 39.3278 37.2136 39.2284C37.1003 39.1289 37.0079 39.0086 36.9386 38.8629C36.8693 38.7195 36.8346 38.5391 36.8346 38.324C36.8346 38.0927 36.8808 37.8938 36.9756 37.7272C37.0703 37.5607 37.1928 37.4242 37.343 37.3132C37.4932 37.2045 37.6642 37.1236 37.8537 37.0727C38.0432 37.0218 38.235 36.9963 38.4268 36.9963C38.6972 36.9963 38.9514 37.0449 39.1871 37.1397C39.4228 37.2369 39.6146 37.3641 39.7579 37.526L39.298 37.9724L39.3003 37.9794Z" fill="white"/>
<path d="M40.7238 37.1213H42.1404C42.39 37.1213 42.6164 37.1468 42.8221 37.1977C43.0278 37.2486 43.2034 37.3249 43.3467 37.4313C43.49 37.5354 43.6032 37.6695 43.6818 37.8314C43.7603 37.9933 43.7996 38.1876 43.7996 38.4166C43.7996 38.6456 43.758 38.8468 43.6725 39.0134C43.587 39.1799 43.4692 39.3164 43.3189 39.4205C43.1687 39.5245 42.9885 39.6032 42.7805 39.6541C42.5725 39.705 42.3484 39.7304 42.108 39.7304H41.3732V41.7728H40.7238V37.126V37.1213ZM41.3732 39.1753H42.0618C42.219 39.1753 42.3645 39.1614 42.4986 39.1336C42.6326 39.1059 42.7458 39.0619 42.8429 39.0018C42.94 38.9417 43.0139 38.8653 43.0647 38.7682C43.1179 38.671 43.1433 38.5531 43.1433 38.4143C43.1433 38.2755 43.1156 38.1576 43.0601 38.0627C43.0047 37.9679 42.9307 37.8916 42.8383 37.8337C42.7435 37.7736 42.6326 37.732 42.5009 37.7088C42.3692 37.6857 42.2282 37.6718 42.0757 37.6718H41.3732V39.1753Z" fill="white"/>
<path d="M49.3088 39.4366C49.3088 39.7951 49.2464 40.1258 49.1216 40.4242C48.9968 40.7226 48.8258 40.9816 48.6063 41.1991C48.3867 41.4165 48.1279 41.5853 47.8252 41.7056C47.5225 41.8259 47.1966 41.886 46.8408 41.886C46.4849 41.886 46.159 41.8259 45.8609 41.7056C45.5605 41.5853 45.3017 41.4165 45.0845 41.1991C44.8649 40.9816 44.6962 40.7249 44.5738 40.4242C44.4513 40.1235 44.3912 39.7951 44.3912 39.4366C44.3912 39.078 44.4513 38.7427 44.5738 38.442C44.6962 38.1413 44.8672 37.8869 45.0845 37.6741C45.304 37.4613 45.5628 37.297 45.8609 37.1791C46.1613 37.0611 46.4872 37.001 46.8408 37.001C47.1943 37.001 47.5225 37.0611 47.8252 37.1791C48.1279 37.297 48.3867 37.4636 48.6063 37.6741C48.8258 37.8869 48.9968 38.1436 49.1216 38.442C49.2464 38.7403 49.3088 39.0734 49.3088 39.4366ZM48.6063 39.4366C48.6063 39.1821 48.5647 38.9439 48.4815 38.7172C48.3983 38.4929 48.2804 38.2939 48.1279 38.1228C47.9754 37.9516 47.7905 37.8175 47.5733 37.718C47.3561 37.6185 47.1134 37.57 46.8431 37.57C46.5727 37.57 46.3347 37.6185 46.1174 37.718C45.9002 37.8175 45.7177 37.9516 45.5674 38.1228C45.4172 38.2939 45.2994 38.4905 45.2162 38.7172C45.133 38.9416 45.0914 39.1821 45.0914 39.4366C45.0914 39.691 45.133 39.9385 45.2162 40.1652C45.2994 40.3918 45.4172 40.5907 45.5698 40.7596C45.7223 40.9284 45.9071 41.0603 46.1198 41.1574C46.3347 41.2546 46.575 41.3008 46.8408 41.3008C47.1065 41.3008 47.3491 41.2523 47.5687 41.1574C47.7882 41.0603 47.9731 40.9284 48.1256 40.7596C48.2781 40.5907 48.396 40.3941 48.4792 40.1652C48.5624 39.9385 48.604 39.6956 48.604 39.4366H48.6063Z" fill="white"/>
<path d="M50.1938 37.1213H51.7884C52.0865 37.1213 52.3823 37.1653 52.6804 37.2532C52.9785 37.3411 53.2465 37.4775 53.4869 37.6672C53.7272 37.8546 53.9213 38.0951 54.0715 38.3889C54.2194 38.6826 54.2957 39.0342 54.2957 39.4459C54.2957 39.8576 54.2217 40.1884 54.0715 40.4798C53.9236 40.7712 53.7272 41.0118 53.4869 41.2015C53.2465 41.3911 52.9785 41.5345 52.6804 41.627C52.3823 41.7219 52.0865 41.7681 51.7884 41.7681H50.1938V37.1213ZM50.8432 41.1968H51.6566C51.9363 41.1968 52.1951 41.1575 52.4331 41.0789C52.6711 41.0002 52.8768 40.8869 53.0501 40.7365C53.2234 40.5885 53.3575 40.4035 53.4545 40.1861C53.5516 39.9663 53.5978 39.7188 53.5978 39.4436C53.5978 39.1683 53.5493 38.9 53.4545 38.6826C53.3575 38.4629 53.2234 38.2801 53.0501 38.1344C52.8768 37.9887 52.6711 37.8754 52.4331 37.799C52.1951 37.7227 51.9363 37.6834 51.6566 37.6834H50.8432V41.1945V41.1968Z" fill="white"/>
<path d="M55.2177 41.7681H54.4967L56.5095 37.1213H57.0988L59.0931 41.7681H58.3582L57.8868 40.6255H55.6822L55.2154 41.7681H55.2177ZM55.9133 40.0542H57.6511L56.7845 37.8754L55.9133 40.0542Z" fill="white"/>
<path d="M60.341 41.7681H59.6916V37.1213H61.1798C61.4017 37.1213 61.6143 37.1445 61.8153 37.1907C62.0164 37.237 62.192 37.311 62.3422 37.4105C62.4924 37.5122 62.6126 37.6441 62.7004 37.8083C62.7882 37.9725 62.8321 38.1737 62.8321 38.4097C62.8321 38.752 62.7281 39.0272 62.5178 39.2377C62.3076 39.4482 62.0372 39.5824 61.7044 39.6379L63.0031 41.7705H62.2151L61.0342 39.7026H60.3387V41.7705L60.341 41.7681ZM60.341 39.1545H61.0897C61.2422 39.1545 61.3855 39.1406 61.5149 39.1151C61.6466 39.0897 61.7599 39.0457 61.8592 38.9879C61.9586 38.9278 62.0349 38.8515 62.0926 38.7589C62.1504 38.6664 62.1781 38.5485 62.1781 38.4074C62.1781 38.2663 62.1504 38.1506 62.0926 38.0558C62.0349 37.961 61.9609 37.8869 61.8662 37.8291C61.7714 37.7713 61.6628 37.732 61.5357 37.7088C61.4086 37.6857 61.2746 37.6718 61.1359 37.6718H60.3433V39.1545H60.341Z" fill="white"/>
<path d="M66.0258 37.9794C65.9333 37.8521 65.8086 37.7481 65.6514 37.6671C65.4943 37.5862 65.3163 37.5468 65.1199 37.5468C65.0159 37.5468 64.9096 37.5607 64.801 37.5885C64.6924 37.6162 64.5976 37.6625 64.5098 37.7272C64.422 37.7897 64.3504 37.8707 64.2972 37.9632C64.2418 38.058 64.2164 38.169 64.2164 38.3009C64.2164 38.4327 64.2418 38.5345 64.2926 38.6201C64.3434 38.7056 64.4105 38.7773 64.496 38.8375C64.5815 38.8976 64.6808 38.9462 64.7987 38.9878C64.9166 39.0295 65.039 39.0711 65.1684 39.115C65.3256 39.1636 65.485 39.2168 65.6468 39.2793C65.8086 39.3417 65.9541 39.4227 66.0859 39.5221C66.2176 39.6216 66.3239 39.7488 66.4071 39.8991C66.4903 40.0495 66.5319 40.2415 66.5319 40.4728C66.5319 40.7041 66.488 40.9215 66.3978 41.0996C66.3077 41.2777 66.1899 41.4234 66.0396 41.5391C65.8917 41.6547 65.7184 41.7426 65.5243 41.7981C65.3302 41.8559 65.1292 41.8837 64.9235 41.8837C64.63 41.8837 64.3481 41.8259 64.0731 41.7125C63.8004 41.5992 63.5739 41.4304 63.3937 41.2083L63.8998 40.7827C64.0084 40.9446 64.1563 41.0765 64.3388 41.1759C64.5214 41.2777 64.7224 41.3263 64.935 41.3263C65.0436 41.3263 65.1546 41.3101 65.2632 41.28C65.3718 41.2499 65.4712 41.2014 65.5613 41.1366C65.6514 41.0718 65.7231 40.9886 65.7808 40.8914C65.8386 40.7943 65.8663 40.674 65.8663 40.5329C65.8663 40.3918 65.8363 40.2762 65.7785 40.1813C65.7184 40.0865 65.6399 40.0079 65.5382 39.9408C65.4365 39.876 65.321 39.8182 65.1869 39.7742C65.0529 39.728 64.9119 39.6817 64.764 39.6332C64.6161 39.5892 64.4682 39.536 64.325 39.4712C64.1817 39.4088 64.0523 39.3278 63.939 39.2284C63.8258 39.1289 63.7334 39.0086 63.664 38.8629C63.5947 38.7195 63.5601 38.5391 63.5601 38.324C63.5601 38.0927 63.6063 37.8938 63.701 37.7272C63.7958 37.5607 63.9182 37.4242 64.0685 37.3132C64.2187 37.2045 64.3897 37.1236 64.5792 37.0727C64.7687 37.0218 64.9605 36.9963 65.1523 36.9963C65.4226 36.9963 65.6768 37.0449 65.9125 37.1397C66.1483 37.2369 66.3378 37.3641 66.4833 37.526L66.0235 37.9724L66.0258 37.9794Z" fill="white"/>
<path d="M68.0986 39.1683H68.1125L70.1854 37.1213H71.0843L68.8289 39.2493L71.223 41.7705H70.2917L68.1148 39.3673H68.101V41.7705H67.4516V37.1236H68.101V39.1707L68.0986 39.1683Z" fill="white"/>
<path d="M71.9625 41.7681H71.2415L73.2542 37.1213H73.8435L75.8378 41.7681H75.103L74.6315 40.6255H72.4269L71.9601 41.7681H71.9625ZM72.658 40.0542H74.3958L73.5292 37.8754L72.658 40.0542Z" fill="white"/>
<path d="M26.9694 47.2823H26.9833L29.0561 45.2354H29.9551L27.6996 47.3633L30.0937 49.8845H29.1624L26.9856 47.4813H26.9717V49.8845H26.3224V45.2377H26.9717V47.2847L26.9694 47.2823Z" fill="white"/>
<path d="M35.1407 47.5506C35.1407 47.9091 35.0783 48.2398 34.9535 48.5382C34.8288 48.8389 34.6577 49.0957 34.4382 49.3131C34.2187 49.5305 33.9599 49.6993 33.6571 49.8196C33.3544 49.9399 33.0286 50 32.6727 50C32.3168 50 31.991 49.9399 31.6929 49.8196C31.3948 49.6993 31.1336 49.5305 30.9164 49.3131C30.6969 49.0957 30.5282 48.8389 30.4057 48.5382C30.2832 48.2375 30.2231 47.9091 30.2231 47.5506C30.2231 47.1921 30.2832 46.8567 30.4057 46.556C30.5282 46.2553 30.6992 46.0009 30.9164 45.7881C31.1359 45.5753 31.3948 45.4111 31.6929 45.2931C31.991 45.1751 32.3191 45.115 32.6727 45.115C33.0263 45.115 33.3544 45.1751 33.6571 45.2931C33.9599 45.4111 34.2187 45.5776 34.4382 45.7881C34.6577 46.0009 34.8288 46.2576 34.9535 46.556C35.0783 46.8567 35.1407 47.1874 35.1407 47.5506ZM34.4382 47.5506C34.4382 47.2961 34.3966 47.0579 34.3134 46.8312C34.2302 46.6069 34.1124 46.408 33.9599 46.2368C33.8073 46.0656 33.6225 45.9315 33.4052 45.832C33.188 45.7326 32.9454 45.684 32.675 45.684C32.4046 45.684 32.1666 45.7326 31.9494 45.832C31.7322 45.9315 31.5496 46.0656 31.3994 46.2368C31.2492 46.408 31.1313 46.6046 31.0481 46.8312C30.9649 47.0556 30.9233 47.2961 30.9233 47.5506C30.9233 47.805 30.9649 48.0525 31.0481 48.2792C31.1313 48.5058 31.2492 48.7048 31.4017 48.8736C31.5542 49.0425 31.7391 49.1743 31.9517 49.2714C32.1666 49.3686 32.4069 49.4148 32.6727 49.4148C32.9384 49.4148 33.1811 49.3663 33.4006 49.2714C33.6202 49.1743 33.805 49.0425 33.9575 48.8736C34.1101 48.7048 34.2279 48.5082 34.3111 48.2792C34.3943 48.0525 34.4359 47.8096 34.4359 47.5506H34.4382Z" fill="white"/>
<path d="M38.4268 48.8042H38.4407L39.811 45.2329H40.8209V49.8797H40.1715V45.9939H40.1577L38.6163 49.8797H38.2026L36.6682 45.9939H36.6544V49.8797H36.0258V45.2329H37.0356L38.4268 48.8042Z" fill="white"/>
<path d="M46.6328 47.5506C46.6328 47.9091 46.5704 48.2398 46.4456 48.5382C46.3208 48.8366 46.1498 49.0957 45.9303 49.3131C45.7107 49.5305 45.4519 49.6993 45.1492 49.8196C44.8465 49.9399 44.5206 50 44.1648 50C43.8089 50 43.483 49.9399 43.1849 49.8196C42.8845 49.6993 42.6257 49.5305 42.4085 49.3131C42.1889 49.0957 42.0202 48.8389 41.8978 48.5382C41.7753 48.2375 41.7152 47.9091 41.7152 47.5506C41.7152 47.1921 41.7753 46.8567 41.8978 46.556C42.0202 46.2553 42.1913 46.0009 42.4085 45.7881C42.628 45.5753 42.8868 45.4111 43.1849 45.2931C43.4854 45.1751 43.8112 45.115 44.1648 45.115C44.5183 45.115 44.8465 45.1751 45.1492 45.2931C45.4519 45.4111 45.7107 45.5776 45.9303 45.7881C46.1498 46.0009 46.3208 46.2576 46.4456 46.556C46.5704 46.8544 46.6328 47.1874 46.6328 47.5506ZM45.9303 47.5506C45.9303 47.2961 45.8887 47.0579 45.8055 46.8312C45.7223 46.6069 45.6044 46.408 45.4519 46.2368C45.2994 46.0656 45.1145 45.9315 44.8973 45.832C44.6801 45.7326 44.4374 45.684 44.1671 45.684C43.8967 45.684 43.6587 45.7326 43.4414 45.832C43.2242 45.9315 43.0417 46.0656 42.8915 46.2368C42.7412 46.408 42.6234 46.6046 42.5402 46.8312C42.457 47.0556 42.4154 47.2961 42.4154 47.5506C42.4154 47.805 42.457 48.0525 42.5402 48.2792C42.6234 48.5058 42.7412 48.7048 42.8938 48.8736C43.0463 49.0425 43.2312 49.1743 43.4438 49.2714C43.6587 49.3686 43.899 49.4148 44.1648 49.4148C44.4305 49.4148 44.6732 49.3663 44.8927 49.2714C45.1122 49.1743 45.2971 49.0425 45.4496 48.8736C45.6021 48.7048 45.72 48.5082 45.8032 48.2792C45.8864 48.0525 45.928 47.8096 45.928 47.5506H45.9303Z" fill="white"/>
<path d="M48.1672 49.8822H47.5179V45.2354H49.0061C49.2279 45.2354 49.4405 45.2585 49.6416 45.3047C49.8426 45.351 50.0182 45.425 50.1684 45.5245C50.3187 45.6262 50.4388 45.7581 50.5266 45.9223C50.6144 46.0865 50.6584 46.2878 50.6584 46.5237C50.6584 46.866 50.5544 47.1413 50.3441 47.3517C50.1338 47.5622 49.8634 47.6964 49.5306 47.7519L50.8294 49.8845H50.0413L48.8605 47.8167H48.1649V49.8845L48.1672 49.8822ZM48.1672 47.2685H48.9159C49.0685 47.2685 49.2117 47.2546 49.3411 47.2292C49.4729 47.2037 49.5861 47.1598 49.6855 47.1019C49.7848 47.0418 49.8611 46.9655 49.9189 46.8729C49.9766 46.7804 50.0044 46.6625 50.0044 46.5214C50.0044 46.3803 49.9766 46.2646 49.9189 46.1698C49.8611 46.075 49.7871 46.001 49.6924 45.9431C49.5977 45.8853 49.489 45.846 49.3619 45.8229C49.2348 45.7997 49.1008 45.7858 48.9622 45.7858H48.1695V47.2685H48.1672Z" fill="white"/>
<path d="M51.7352 49.8822H51.0142L53.027 45.2354H53.6163L55.6106 49.8822H54.8757L54.4043 48.7395H52.1997L51.7329 49.8822H51.7352ZM52.4308 48.1682H54.1686L53.302 45.9894L52.4308 48.1682Z" fill="white"/>
<path d="M15.7315 23.4422H20.7762V0.580566H15.7315V9.10395H5.93797V0.580566H0.895599V23.4422H5.93797V13.5588H15.7315V23.4422Z" fill="white"/>
<path d="M42.5356 23.5071C44.107 23.1624 45.6137 22.6027 47.058 21.8278V9.88123H38.3598V14.528H42.3484V18.2404C41.8885 18.4994 41.2692 18.7539 40.495 19.0014C39.7186 19.2489 38.7988 19.3738 37.7289 19.3738C36.659 19.3738 35.7346 19.191 34.8888 18.8256C34.0407 18.4601 33.3128 17.9466 32.7073 17.2897C32.0973 16.6352 31.6351 15.8603 31.3092 14.9652C30.9834 14.0701 30.8216 13.0847 30.8216 12.0092C30.8216 10.9336 30.9834 9.97606 31.3092 9.06937C31.6328 8.1673 32.0973 7.38782 32.7073 6.72862C33.3128 6.07404 34.0407 5.56287 34.8888 5.19741C35.7346 4.83196 36.6821 4.64923 37.7289 4.64923C38.986 4.64923 40.0329 4.83196 40.8717 5.19741C41.7059 5.56287 42.4593 6.09948 43.1318 6.80957L46.5842 2.93762C45.4542 1.86208 44.1416 1.1011 42.6465 0.659319C41.1467 0.217537 39.5106 -0.00219727 37.7312 -0.00219727C35.9518 -0.00219727 34.392 0.275362 32.9292 0.835107C31.4618 1.39485 30.1954 2.19977 29.1301 3.24062C28.0601 4.28609 27.2282 5.54899 26.632 7.03624C26.0381 8.52119 25.74 10.1819 25.74 12.0092C25.74 13.8364 26.0381 15.4972 26.632 16.9821C27.2282 18.4671 28.0601 19.7323 29.1301 20.7777C30.1977 21.8209 31.4641 22.6235 32.9292 23.1833C34.392 23.743 35.9957 24.0252 37.7312 24.0252C39.3673 24.0252 40.9665 23.8517 42.5379 23.5094" fill="white"/>
<path d="M62.2544 11.2041L71.7152 0.580566H65.589L57.3299 10.0731V0.580566H52.6434V23.4399H57.3299V12.5943L65.9796 23.4399H72.5286L62.2544 11.2041Z" fill="white"/>
<path d="M16.7807 36.7466V33.143C16.7807 33.143 16.7807 32.9718 16.9517 32.9718H20.5844C20.5844 32.9718 20.7554 32.9718 20.7554 32.8006V29.1345C20.7554 29.1345 20.7554 28.9634 20.5844 28.9634H16.924C16.924 28.9634 16.7529 28.9634 16.7529 29.1345V32.7521C16.7529 32.7521 16.7529 32.9232 16.5819 32.9232H12.97C12.97 32.9232 12.799 32.9232 12.799 32.7521V29.1345C12.799 29.1345 12.799 28.9634 12.628 28.9634H8.96524C8.96524 28.9634 8.79423 28.9634 8.79423 29.1345V32.7521C8.79423 32.7521 8.79423 32.9232 8.62323 32.9232H5.0113C5.0113 32.9232 4.84029 32.9232 4.84029 32.7521V29.1345C4.84029 29.1345 4.84029 28.9634 4.66929 28.9634H1.00884C1.00884 28.9634 0.83783 28.9634 0.83783 29.1345V32.8006C0.83783 32.8006 0.83783 32.9718 1.00884 32.9718H4.64387C4.64387 32.9718 4.81487 32.9718 4.81487 33.143V36.7466C4.81487 36.7466 4.81487 36.9178 4.64387 36.9178H1.00884C1.00884 36.9178 0.83783 36.9178 0.83783 37.0889L1.17291 40.755C1.17291 40.755 1.17291 40.9262 1.34391 40.9262H4.64387C4.64387 40.9262 4.81487 40.9262 4.81487 41.0973V44.6848C4.81487 44.6848 4.81487 44.856 4.64387 44.856H2.67037C2.67037 44.856 2.49936 44.856 2.58024 45.0063C2.58024 45.0063 2.6773 45.4897 3.37288 46.5098C4.00375 47.4373 4.69471 48.0571 4.69471 48.0571C4.69471 48.0571 4.82181 48.1705 4.82181 48.0016V45.0572C4.82181 45.0572 4.82181 44.886 4.99281 44.886H8.63478C8.63478 44.886 8.80579 44.886 8.80579 45.0572V49.6693C8.80579 49.6693 8.80579 49.8405 8.97679 49.8405H12.6188C12.6188 49.8405 12.7898 49.8405 12.7898 49.6693V45.0572C12.7898 45.0572 12.7898 44.886 12.9608 44.886H16.6027C16.6027 44.886 16.7737 44.886 16.7737 45.0572V48.0016C16.7737 48.0016 16.7737 48.1728 16.887 48.0433C16.887 48.0433 17.5941 47.4373 18.225 46.5098C18.9182 45.4897 19.05 45.0202 19.05 45.0202C19.05 45.0202 19.0962 44.856 18.9252 44.856H16.9563C16.9563 44.856 16.7853 44.856 16.7853 44.6848V41.0973C16.7853 41.0973 16.7853 40.9262 16.9563 40.9262H20.2539C20.2539 40.9262 20.425 40.9262 20.425 40.755L20.76 37.0889C20.76 37.0889 20.76 36.9178 20.589 36.9178H16.9563C16.9563 36.9178 16.7853 36.9178 16.7853 36.7466M8.79885 40.7065C8.79885 40.7065 8.79885 40.8776 8.62785 40.8776H5.01592C5.01592 40.8776 4.84492 40.8776 4.84492 40.7065V37.1028C4.84492 37.1028 4.84492 36.9316 5.01592 36.9316H8.62785C8.62785 36.9316 8.79885 36.9316 8.79885 37.1028V40.7065ZM12.7828 36.7466C12.7828 36.7466 12.7828 36.9178 12.6118 36.9178H8.99528C8.99528 36.9178 8.82427 36.9178 8.82427 36.7466V33.143C8.82427 33.143 8.82427 32.9718 8.99528 32.9718H12.6118C12.6118 32.9718 12.7828 32.9718 12.7828 33.143V36.7466ZM12.7828 44.6825C12.7828 44.6825 12.7828 44.8537 12.6118 44.8537H8.99528C8.99528 44.8537 8.82427 44.8536 8.82427 44.6825V41.095C8.82427 41.095 8.82427 40.9239 8.99528 40.9239H12.6118C12.6118 40.9239 12.7828 40.9239 12.7828 41.095V44.6825ZM16.7576 40.7065C16.7576 40.7065 16.7576 40.8776 16.5866 40.8776H12.9746C12.9746 40.8776 12.8036 40.8776 12.8036 40.7065V37.1028C12.8036 37.1028 12.8036 36.9316 12.9746 36.9316H16.5866C16.5866 36.9316 16.7576 36.9316 16.7576 37.1028V40.7065Z" fill="#ED1D24"/>
</g>
<defs>
<clipPath id="clip0_11_35490">
<rect width="75" height="50" fill="white" transform="translate(0.83783)"/>
</clipPath>
</defs>
</svg>
