<svg width="72" height="50" viewBox="0 0 72 50" fill="none" xmlns="http://www.w3.org/2000/svg">
<g clip-path="url(#clip0_528_100160)">
<path d="M29.6815 32.9571C29.5007 33.2064 29.2627 33.4095 28.9744 33.5642C28.6838 33.7188 28.336 33.7973 27.9287 33.7973C27.5786 33.7973 27.2537 33.7373 26.9585 33.6172C26.6611 33.4972 26.4071 33.3287 26.192 33.1118C25.9769 32.8948 25.8099 32.6386 25.6886 32.3386C25.5673 32.0385 25.5078 31.7108 25.5078 31.353C25.5078 30.9953 25.5696 30.6606 25.6932 30.3605C25.8167 30.0605 25.9883 29.8066 26.2057 29.5943C26.4231 29.3819 26.6839 29.218 26.9814 29.1003C27.2812 28.9826 27.6061 28.9226 27.9562 28.9226C28.1118 28.9226 28.2696 28.9388 28.4298 28.9688C28.59 28.9988 28.7433 29.0449 28.892 29.1073C29.0385 29.1673 29.1735 29.2434 29.2948 29.3334C29.416 29.4235 29.519 29.5273 29.6059 29.645L29.1003 30.0374C28.9881 29.8805 28.828 29.7512 28.622 29.6473C28.4161 29.5458 28.1941 29.4927 27.9562 29.4927C27.6884 29.4927 27.4459 29.5412 27.2308 29.6404C27.0157 29.7397 26.8327 29.8735 26.6816 30.0443C26.5306 30.2151 26.4139 30.4113 26.3316 30.6375C26.2492 30.8614 26.208 31.1014 26.208 31.3553C26.208 31.6092 26.2469 31.8631 26.3293 32.0893C26.4094 32.3155 26.5238 32.514 26.6725 32.6825C26.8212 32.851 27.0043 32.9825 27.2171 33.0795C27.4322 33.1764 27.6701 33.2226 27.9356 33.2226C28.201 33.2226 28.4321 33.1695 28.6426 33.0656C28.8531 32.9618 29.0293 32.8071 29.1689 32.6063L29.6815 32.9594V32.9571Z" fill="white"/>
<path d="M30.9814 33.6796H30.3384V29.0403H31.812C32.0339 29.0403 32.2421 29.0634 32.4412 29.1096C32.6403 29.1557 32.8142 29.2296 32.9652 29.3289C33.1139 29.4304 33.2329 29.562 33.3199 29.7258C33.4068 29.8897 33.4503 30.0905 33.4503 30.3259C33.4503 30.6675 33.3473 30.9422 33.1391 31.1522C32.9309 31.3623 32.6632 31.4961 32.3337 31.5515L33.6196 33.6819H32.8394L31.6701 31.6185H30.9814V33.6819V33.6796ZM30.9814 31.0715H31.7227C31.8737 31.0715 32.0156 31.0576 32.146 31.0322C32.2765 31.0068 32.3886 30.963 32.487 30.9053C32.5854 30.8453 32.6609 30.7691 32.7181 30.6768C32.7753 30.5821 32.8028 30.4667 32.8028 30.3259C32.8028 30.1852 32.7753 30.0697 32.7181 29.9751C32.6609 29.8805 32.5877 29.8066 32.4938 29.7489C32.4 29.6912 32.2925 29.652 32.1666 29.6266C32.0408 29.6035 31.9081 29.5897 31.7708 29.5897H30.9836V31.0715H30.9814Z" fill="white"/>
<path d="M38.9645 31.353C38.9645 31.7108 38.9027 32.0408 38.7791 32.3386C38.6556 32.6386 38.4862 32.8948 38.2689 33.1118C38.0515 33.3287 37.7952 33.4972 37.4955 33.6172C37.1957 33.7373 36.8708 33.7973 36.5207 33.7973C36.1706 33.7973 35.8457 33.7373 35.5505 33.6172C35.253 33.4972 34.9968 33.3287 34.7817 33.1118C34.5643 32.8948 34.3973 32.6386 34.276 32.3386C34.1547 32.0385 34.0952 31.7108 34.0952 31.353C34.0952 30.9953 34.1547 30.6606 34.276 30.3605C34.3973 30.0605 34.5666 29.8066 34.7817 29.5943C34.999 29.3819 35.2553 29.218 35.5505 29.1003C35.848 28.9826 36.1706 28.9226 36.5207 28.9226C36.8708 28.9226 37.1957 28.9803 37.4955 29.1003C37.7952 29.218 38.0515 29.3842 38.2689 29.5943C38.4862 29.8043 38.6556 30.0628 38.7791 30.3605C38.9027 30.6583 38.9645 30.9906 38.9645 31.353ZM38.2689 31.353C38.2689 31.0991 38.2277 30.8614 38.1453 30.6352C38.0629 30.4113 37.9462 30.2128 37.7952 30.042C37.6442 29.8712 37.4611 29.7374 37.246 29.6381C37.031 29.5389 36.7907 29.4904 36.5207 29.4904C36.2507 29.4904 36.0173 29.5389 35.8022 29.6381C35.5871 29.7374 35.4063 29.8712 35.2576 30.042C35.1089 30.2128 34.9922 30.409 34.9098 30.6352C34.8274 30.8591 34.7862 31.0991 34.7862 31.353C34.7862 31.6069 34.8274 31.8539 34.9098 32.0801C34.9922 32.3063 35.1089 32.5048 35.2599 32.6732C35.4109 32.8417 35.594 32.9733 35.8045 33.0702C36.0173 33.1672 36.2553 33.2133 36.5184 33.2133C36.7815 33.2133 37.0218 33.1649 37.2392 33.0702C37.4566 32.9733 37.6396 32.8417 37.7906 32.6732C37.9416 32.5048 38.0583 32.3086 38.1407 32.0801C38.2231 31.8539 38.2643 31.6115 38.2643 31.353H38.2689Z" fill="white"/>
<path d="M39.9141 33.6795H39.2002L41.1955 29.0403H41.779L43.7537 33.6795H43.026L42.5592 32.5393H40.3763L39.9141 33.6795ZM40.6029 31.9692H42.3236L41.4655 29.7927L40.6006 31.9692H40.6029Z" fill="white"/>
<path d="M45.5663 33.6795H44.9233V29.6104H43.4497V29.0403H47.0422V29.6104H45.5686V33.6795H45.5663Z" fill="white"/>
<path d="M48.2939 33.6795H47.6509V29.0403H48.2939V33.6795Z" fill="white"/>
<path d="M49.6001 33.6795H48.8862L50.8815 29.0403H51.465L53.4397 33.6795H52.7121L52.2453 32.5393H50.0624L49.6001 33.6795ZM50.2889 31.9692H52.0096L51.1515 29.7927L50.2866 31.9692H50.2889Z" fill="white"/>
<path d="M57.2702 32.7494H57.2839V29.0403H57.9269V33.6795H57.1146L54.6845 29.892H54.6708V33.6795H54.0278V29.0403H54.8653L57.2679 32.7494H57.2702Z" fill="white"/>
<path d="M29.6815 41.0562C29.5007 41.3055 29.2627 41.5086 28.9744 41.6632C28.6838 41.8179 28.336 41.8963 27.9287 41.8963C27.5786 41.8963 27.2537 41.8363 26.9585 41.7163C26.6611 41.5963 26.4071 41.4278 26.192 41.2108C25.9769 40.9939 25.8099 40.7377 25.6886 40.4376C25.5673 40.1376 25.5078 39.8098 25.5078 39.4521C25.5078 39.0943 25.5696 38.7597 25.6932 38.4596C25.8167 38.1596 25.9883 37.9057 26.2057 37.6933C26.4231 37.481 26.6839 37.3171 26.9814 37.1994C27.2812 37.0817 27.6061 37.0217 27.9562 37.0217C28.1118 37.0217 28.2696 37.0378 28.4298 37.0678C28.59 37.0978 28.7433 37.144 28.892 37.2063C29.0385 37.2663 29.1735 37.3425 29.2948 37.4325C29.416 37.5225 29.519 37.6264 29.6059 37.7441L29.1003 38.1365C28.9881 37.9795 28.828 37.8503 28.622 37.7464C28.4161 37.6448 28.1941 37.5918 27.9562 37.5918C27.6884 37.5918 27.4459 37.6402 27.2308 37.7395C27.0157 37.8387 26.8327 37.9726 26.6816 38.1434C26.5306 38.3142 26.4139 38.5104 26.3316 38.7366C26.2492 38.9605 26.208 39.2005 26.208 39.4544C26.208 39.7083 26.2469 39.9622 26.3293 40.1884C26.4094 40.4145 26.5238 40.613 26.6725 40.7815C26.8212 40.95 27.0043 41.0816 27.2171 41.1785C27.4322 41.2755 27.6701 41.3216 27.9356 41.3216C28.201 41.3216 28.4321 41.2685 28.6426 41.1647C28.8531 41.0608 29.0293 40.9062 29.1689 40.7054L29.6815 41.0585V41.0562Z" fill="white"/>
<path d="M30.3384 37.1394H30.9814V39.0782H33.3062V37.1394H33.956V41.7786H33.3062V39.6552H30.9814V41.7786H30.3384V37.1394Z" fill="white"/>
<path d="M35.2623 41.7786H34.5483L36.5436 37.1394H37.1294L39.1041 41.7786H38.3765L37.9097 40.6385H35.7268L35.2645 41.7786H35.2623ZM35.951 40.0684H37.6717L36.8136 37.8918L35.9487 40.0684H35.951Z" fill="white"/>
<path d="M42.0697 40.7031H42.0834L43.4403 37.1394H44.4402V41.7786H43.7972V37.8988H43.7835L42.2573 41.7786H41.8477L40.3283 37.8988H40.3146V41.7786H39.6899V37.1394H40.6899L42.0674 40.7031H42.0697Z" fill="white"/>
<path d="M45.5589 37.1394H47.1446C47.3185 37.1394 47.4902 37.1579 47.6641 37.1994C47.838 37.2387 47.9913 37.3033 48.1286 37.3956C48.2658 37.4879 48.3757 37.6079 48.4603 37.7557C48.545 37.9034 48.5862 38.0903 48.5862 38.3119C48.5862 38.5704 48.513 38.7851 48.3665 38.9605C48.2201 39.1359 48.0233 39.2559 47.7808 39.3205V39.3344C47.9272 39.3529 48.0645 39.3898 48.1903 39.4498C48.3162 39.5098 48.4237 39.586 48.5153 39.6829C48.6068 39.7798 48.6777 39.8929 48.7258 40.0245C48.7761 40.1561 48.8013 40.3015 48.8013 40.463C48.8013 40.6846 48.7555 40.8808 48.664 41.047C48.5725 41.2132 48.4489 41.3493 48.2933 41.4555C48.1377 41.5617 47.9547 41.6425 47.7441 41.6979C47.5336 41.7533 47.3094 41.7786 47.0714 41.7786H45.5566V37.1394H45.5589ZM46.2019 39.099H47.0394C47.1607 39.099 47.2774 39.0851 47.3872 39.0574C47.497 39.0297 47.5931 38.9859 47.6755 38.9259C47.7579 38.8658 47.8219 38.792 47.87 38.702C47.918 38.612 47.9409 38.5035 47.9409 38.3765C47.9409 38.1273 47.8494 37.9495 47.6686 37.8434C47.4879 37.7372 47.243 37.6818 46.9341 37.6818H46.1996V39.0967L46.2019 39.099ZM46.2019 41.2293H47.0074C47.1424 41.2293 47.2774 41.2178 47.4124 41.1924C47.5496 41.1693 47.6732 41.1255 47.783 41.0655C47.8929 41.0054 47.9821 40.9224 48.0485 40.8208C48.1148 40.7192 48.1492 40.5877 48.1492 40.4307C48.1492 40.1561 48.0553 39.9576 47.87 39.8352C47.6847 39.7129 47.4146 39.6529 47.0646 39.6529H46.1996V41.2316L46.2019 41.2293Z" fill="white"/>
<path d="M50.371 41.2016H52.7736V41.7786H49.728V37.1394H52.6775V37.7095H50.371V39.099H52.5402V39.6552H50.371V41.2016Z" fill="white"/>
<path d="M54.2773 41.7786H53.6343V37.1394H55.1079C55.3275 37.1394 55.538 37.1625 55.7371 37.2086C55.9362 37.2548 56.1101 37.3287 56.2611 37.4279C56.4098 37.5295 56.5288 37.661 56.6158 37.8249C56.7027 37.9888 56.7462 38.1896 56.7462 38.425C56.7462 38.7666 56.6432 39.0413 56.435 39.2513C56.2268 39.4613 55.9591 39.5952 55.6296 39.6506L56.9155 41.781H56.1353L54.966 39.7175H54.2773V41.781V41.7786ZM54.2773 39.1705H55.0186C55.1696 39.1705 55.3115 39.1567 55.4419 39.1313C55.5724 39.1059 55.6845 39.062 55.7829 39.0043C55.8813 38.9443 55.9568 38.8682 56.014 38.7758C56.0712 38.6812 56.0987 38.5658 56.0987 38.425C56.0987 38.2842 56.0712 38.1688 56.014 38.0742C55.9568 37.9795 55.8836 37.9057 55.7897 37.848C55.6959 37.7903 55.5884 37.751 55.4625 37.7257C55.3367 37.7026 55.204 37.6887 55.0667 37.6887H54.2795V39.1705H54.2773Z" fill="white"/>
<path d="M69.0293 49.8892H68.3794V47.8835L66.6587 45.25H67.4504L68.7226 47.3457L70.0017 45.25H70.7477L69.027 47.8835V49.8892H69.0293Z" fill="white"/>
<path d="M30.3771 47.558C30.3771 47.9158 30.3153 48.2458 30.1917 48.5436C30.0682 48.8436 29.8988 49.0998 29.6815 49.3168C29.4641 49.5338 29.2078 49.7022 28.9081 49.8223C28.6083 49.9423 28.2834 50.0023 27.9333 50.0023C27.5832 50.0023 27.2583 49.9423 26.9631 49.8223C26.6656 49.7022 26.4094 49.5338 26.1943 49.3168C25.9769 49.0998 25.8099 48.8436 25.6886 48.5436C25.5673 48.2435 25.5078 47.9158 25.5078 47.558C25.5078 47.2003 25.5673 46.8656 25.6886 46.5656C25.8099 46.2655 25.9792 46.0116 26.1943 45.7993C26.4116 45.5869 26.6679 45.4231 26.9631 45.3053C27.2606 45.1876 27.5832 45.1276 27.9333 45.1276C28.2834 45.1276 28.6083 45.1853 28.9081 45.3053C29.2078 45.4231 29.4641 45.5892 29.6815 45.7993C29.8988 46.0116 30.0682 46.2678 30.1917 46.5656C30.3153 46.8633 30.3771 47.1957 30.3771 47.558ZM29.6815 47.558C29.6815 47.3041 29.6403 47.0664 29.5579 46.8402C29.4755 46.6163 29.3588 46.4178 29.2078 46.247C29.0568 46.0762 28.8737 45.9424 28.6586 45.8431C28.4435 45.7439 28.2033 45.6954 27.9333 45.6954C27.6633 45.6954 27.4299 45.7439 27.2148 45.8431C26.9997 45.9424 26.8189 46.0762 26.6702 46.247C26.5215 46.4178 26.4048 46.614 26.3224 46.8402C26.24 47.0641 26.1988 47.3041 26.1988 47.558C26.1988 47.8119 26.24 48.0589 26.3224 48.2851C26.4048 48.5113 26.5215 48.7098 26.6725 48.8783C26.8235 49.0467 27.0066 49.1783 27.2171 49.2752C27.4299 49.3722 27.6679 49.4183 27.931 49.4183C28.1941 49.4183 28.4344 49.3699 28.6518 49.2752C28.8692 49.1783 29.0522 49.0467 29.2032 48.8783C29.3542 48.7098 29.4709 48.5136 29.5533 48.2851C29.6357 48.0589 29.6769 47.8165 29.6769 47.558H29.6815Z" fill="white"/>
<path d="M31.8988 49.8823H31.2559V45.243H34.1275V45.8131H31.8988V47.2557H33.9834V47.8119H31.8988V49.8823Z" fill="white"/>
<path d="M37.2118 49.3076H39.6144V49.8846H36.5688V45.2454H39.5183V45.8155H37.2118V47.2049H39.381V47.7612H37.2118V49.3076Z" fill="white"/>
<path d="M44.4149 49.1622C44.2341 49.4114 43.9961 49.6145 43.7078 49.7692C43.4172 49.9238 43.0694 50.0023 42.6621 50.0023C42.312 50.0023 41.9871 49.9423 41.6919 49.8223C41.3945 49.7022 41.1405 49.5338 40.9254 49.3168C40.7103 49.0998 40.5432 48.8436 40.422 48.5436C40.3007 48.2435 40.2412 47.9158 40.2412 47.558C40.2412 47.2003 40.303 46.8656 40.4266 46.5656C40.5501 46.2655 40.7217 46.0116 40.9391 45.7993C41.1588 45.5869 41.4173 45.4231 41.7148 45.3053C42.0146 45.1876 42.3372 45.1276 42.6896 45.1276C42.8452 45.1276 43.003 45.1438 43.1632 45.1738C43.3234 45.2038 43.4767 45.25 43.6254 45.3123C43.7742 45.3746 43.9069 45.4484 44.0282 45.5385C44.1494 45.6285 44.2524 45.7323 44.3393 45.8501L43.8337 46.2424C43.7215 46.0855 43.5614 45.9562 43.3554 45.8524C43.1495 45.7508 42.9275 45.6977 42.6896 45.6977C42.4218 45.6977 42.1793 45.7462 41.9642 45.8454C41.7491 45.9447 41.5661 46.0786 41.415 46.2494C41.264 46.4202 41.1473 46.6163 41.065 46.8425C40.9826 47.0687 40.9414 47.3065 40.9414 47.5603C40.9414 47.8142 40.9803 48.0681 41.0627 48.2943C41.1428 48.5205 41.2572 48.719 41.4059 48.8875C41.5546 49.056 41.7377 49.1875 41.9505 49.2845C42.1656 49.3814 42.4035 49.4276 42.669 49.4276C42.9344 49.4276 43.1655 49.3745 43.376 49.2706C43.5888 49.1668 43.7627 49.0121 43.9023 48.8113L44.4149 49.1645V49.1622Z" fill="white"/>
<path d="M49.6324 47.558C49.6324 47.9158 49.5707 48.2458 49.4471 48.5436C49.3235 48.8436 49.1542 49.0998 48.9368 49.3168C48.7195 49.5338 48.4632 49.7022 48.1634 49.8223C47.8637 49.9423 47.541 50.0023 47.1887 50.0023C46.8363 50.0023 46.5136 49.9423 46.2185 49.8223C45.921 49.7022 45.6647 49.5338 45.4496 49.3168C45.2323 49.0998 45.0652 48.8436 44.944 48.5436C44.8227 48.2435 44.7632 47.9158 44.7632 47.558C44.7632 47.2003 44.8227 46.8656 44.944 46.5656C45.0652 46.2655 45.2345 46.0116 45.4496 45.7993C45.6647 45.5869 45.9233 45.4231 46.2185 45.3053C46.5159 45.1876 46.8386 45.1276 47.1887 45.1276C47.5387 45.1276 47.8637 45.1853 48.1634 45.3053C48.4632 45.4231 48.7195 45.5892 48.9368 45.7993C49.1542 46.0093 49.3235 46.2678 49.4471 46.5656C49.5707 46.8633 49.6324 47.1957 49.6324 47.558ZM48.9368 47.558C48.9368 47.3041 48.8956 47.0664 48.8133 46.8402C48.7309 46.6163 48.6142 46.4178 48.4632 46.247C48.3122 46.0762 48.1291 45.9424 47.914 45.8431C47.6989 45.7439 47.4587 45.6954 47.1887 45.6954C46.9187 45.6954 46.6853 45.7439 46.4702 45.8431C46.2551 45.9424 46.0743 46.0762 45.9256 46.247C45.7768 46.4178 45.6602 46.614 45.5778 46.8402C45.4954 47.0664 45.4542 47.3041 45.4542 47.558C45.4542 47.8119 45.4954 48.0589 45.5778 48.2851C45.6602 48.5113 45.7769 48.7098 45.9279 48.8783C46.0789 49.0467 46.2619 49.1783 46.4725 49.2752C46.6853 49.3722 46.9232 49.4183 47.1864 49.4183C47.4495 49.4183 47.6898 49.3699 47.9071 49.2752C48.1245 49.1783 48.3076 49.0467 48.4586 48.8783C48.6096 48.7098 48.7263 48.5136 48.8087 48.2851C48.8911 48.0589 48.9323 47.8165 48.9323 47.558H48.9368Z" fill="white"/>
<path d="M53.7511 48.9521H53.7649V45.243H54.4079V49.8823H53.5955L51.1655 46.0947H51.1518V49.8823H50.5088V45.243H51.3463L53.7489 48.9521H53.7511Z" fill="white"/>
<path d="M60.1627 47.558C60.1627 47.9158 60.1009 48.2458 59.9774 48.5436C59.8538 48.8436 59.6845 49.0998 59.4671 49.3168C59.2497 49.5338 58.9934 49.7022 58.6937 49.8223C58.3939 49.9423 58.0713 50.0023 57.7189 50.0023C57.3666 50.0023 57.0439 49.9423 56.7487 49.8223C56.4513 49.7022 56.195 49.5338 55.9799 49.3168C55.7625 49.0998 55.5955 48.8436 55.4742 48.5436C55.353 48.2435 55.2935 47.9158 55.2935 47.558C55.2935 47.2003 55.353 46.8656 55.4742 46.5656C55.5955 46.2655 55.7648 46.0116 55.9799 45.7993C56.195 45.5869 56.4536 45.4231 56.7487 45.3053C57.0462 45.1876 57.3688 45.1276 57.7189 45.1276C58.069 45.1276 58.3939 45.1853 58.6937 45.3053C58.9934 45.4231 59.2497 45.5892 59.4671 45.7993C59.6845 46.0093 59.8538 46.2678 59.9774 46.5656C60.1009 46.8633 60.1627 47.1957 60.1627 47.558ZM59.4671 47.558C59.4671 47.3041 59.4259 47.0664 59.3435 46.8402C59.2612 46.6163 59.1445 46.4178 58.9934 46.247C58.8424 46.0762 58.6594 45.9424 58.4443 45.8431C58.2292 45.7439 57.9889 45.6954 57.7189 45.6954C57.4489 45.6954 57.2155 45.7439 57.0004 45.8431C56.7854 45.9424 56.6046 46.0762 56.4559 46.247C56.3071 46.4178 56.1904 46.614 56.108 46.8402C56.0257 47.0664 55.9845 47.3041 55.9845 47.558C55.9845 47.8119 56.0257 48.0589 56.108 48.2851C56.1904 48.5113 56.3071 48.7098 56.4581 48.8783C56.6092 49.0467 56.7922 49.1783 57.0027 49.2752C57.2155 49.3722 57.4535 49.4183 57.7166 49.4183C57.9798 49.4183 58.22 49.3699 58.4374 49.2752C58.6548 49.1783 58.8379 49.0467 58.9889 48.8783C59.1399 48.7098 59.2566 48.5136 59.339 48.2851C59.4213 48.0589 59.4625 47.8165 59.4625 47.558H59.4671Z" fill="white"/>
<path d="M63.4163 48.809H63.4301L64.787 45.2454H65.7869V49.8846H65.1439V46.0047H65.1302L63.604 49.8846H63.1944L61.675 46.0047H61.6613V49.8846H61.0366V45.2454H62.0366L63.414 48.809H63.4163Z" fill="white"/>
<path d="M15.0988 23.3971H20.094V0.579346H15.0988V9.08694H5.39696V0.579346H0.401855V23.3971H5.39696V13.5346H15.0988V23.3971Z" fill="white"/>
<path d="M41.6509 23.464C43.2069 23.1201 44.6987 22.5615 46.1289 21.7883V9.86244H37.5139V14.5017H41.4633V18.2085C41.0079 18.467 40.3947 18.7209 39.6281 18.9678C38.8593 19.2148 37.9486 19.3394 36.8892 19.3394C35.8298 19.3394 34.9145 19.1571 34.0747 18.7924C33.2327 18.4277 32.5119 17.9153 31.9124 17.2598C31.3083 16.6043 30.8507 15.8334 30.528 14.9402C30.2077 14.0493 30.0452 13.0637 30.0452 11.9882C30.0452 10.9126 30.2054 9.95938 30.528 9.05461C30.8484 8.15446 31.3083 7.37432 31.9124 6.71883C32.5119 6.06564 33.2327 5.55555 34.0747 5.19088C34.9122 4.8262 35.8526 4.64386 36.8892 4.64386C38.1362 4.64386 39.1705 4.8262 40.0011 5.19088C40.8271 5.55555 41.5754 6.09103 42.2412 6.79961L45.6598 2.93357C44.5409 1.86031 43.2389 1.10096 41.7584 0.660112C40.2734 0.219268 38.6511 0 36.8892 0C35.1273 0 33.5828 0.27697 32.1321 0.837834C30.6791 1.39639 29.4251 2.1996 28.368 3.23824C27.3086 4.28149 26.4848 5.54401 25.8945 7.0258C25.3064 8.50759 25.0112 10.1648 25.0112 11.9882C25.0112 13.8116 25.3064 15.4688 25.8945 16.9506C26.4848 18.4324 27.3086 19.6949 28.368 20.7381C29.4251 21.7814 30.6791 22.58 32.1321 23.1385C33.5828 23.6971 35.1685 23.9787 36.8892 23.9787C38.5092 23.9787 40.0926 23.8056 41.6486 23.464" fill="white"/>
<path d="M61.1624 11.1827L70.5325 0.579346H64.4642L56.2863 10.054V0.579346H51.6436V23.3971H56.2863V12.5698L64.8509 23.3971H71.3379L61.1624 11.1827Z" fill="white"/>
<path d="M16.1286 36.7309V33.1326C16.1286 33.1326 16.1286 32.9618 16.298 32.9618H19.895C19.895 32.9618 20.0643 32.9618 20.0643 32.791V29.1327C20.0643 29.1327 20.0643 28.9619 19.895 28.9619H16.2682C16.2682 28.9619 16.0989 28.9619 16.0989 29.1327V32.7425C16.0989 32.7425 16.0989 32.9133 15.9296 32.9133H12.3531C12.3531 32.9133 12.1838 32.9133 12.1838 32.7425V29.1327C12.1838 29.1327 12.1838 28.9619 12.0145 28.9619H8.38771C8.38771 28.9619 8.21839 28.9619 8.21839 29.1327V32.7425C8.21839 32.7425 8.21839 32.9133 8.04906 32.9133H4.47264C4.47264 32.9133 4.30331 32.9133 4.30331 32.7425V29.1327C4.30331 29.1327 4.30331 28.9619 4.13398 28.9619H0.507216C0.507216 28.9619 0.337891 28.9619 0.337891 29.1327V32.791C0.337891 32.791 0.337891 32.9618 0.507216 32.9618H4.10653C4.10653 32.9618 4.27585 32.9618 4.27585 33.1326V36.7309C4.27585 36.7309 4.27585 36.9017 4.10653 36.9017H0.507216C0.507216 36.9017 0.337891 36.9017 0.337891 37.0725L0.669677 40.7308C0.669677 40.7308 0.669677 40.9016 0.839002 40.9016H4.10653C4.10653 40.9016 4.27585 40.9016 4.27585 41.0724V44.6522C4.27585 44.6522 4.27585 44.823 4.10653 44.823H2.15471C2.15471 44.823 1.98538 44.823 2.06547 44.973C2.06547 44.973 2.16386 45.4554 2.85031 46.4733C3.47499 47.3988 4.15915 48.0174 4.15915 48.0174C4.15915 48.0174 4.285 48.1305 4.285 47.962V45.0238C4.285 45.0238 4.285 44.853 4.45433 44.853H8.0605C8.0605 44.853 8.22983 44.853 8.22983 45.0238V49.6284C8.22983 49.6284 8.22983 49.7992 8.39916 49.7992H12.0053C12.0053 49.7992 12.1747 49.7992 12.1747 49.6284V45.0238C12.1747 45.0238 12.1747 44.853 12.344 44.853H15.9502C15.9502 44.853 16.1195 44.853 16.1195 45.0238V47.962C16.1195 47.962 16.1195 48.1328 16.2316 48.0035C16.2316 48.0035 16.9318 47.3988 17.5565 46.4733C18.2429 45.4554 18.3733 44.9846 18.3733 44.9846C18.3733 44.9846 18.4191 44.8207 18.2498 44.8207H16.3002C16.3002 44.8207 16.1309 44.8207 16.1309 44.6499V41.0701C16.1309 41.0701 16.1309 40.8993 16.3002 40.8993H19.5655C19.5655 40.8993 19.7348 40.8993 19.7348 40.7285L20.0666 37.0701C20.0666 37.0701 20.0666 36.8993 19.8973 36.8993H16.3002C16.3002 36.8993 16.1309 36.8994 16.1309 36.7286M8.22068 40.68C8.22068 40.68 8.22068 40.8508 8.05135 40.8508H4.47492C4.47492 40.8508 4.3056 40.8508 4.3056 40.68V37.0817C4.3056 37.0817 4.3056 36.9109 4.47492 36.9109H8.05135C8.05135 36.9109 8.22068 36.9109 8.22068 37.0817V40.68ZM12.1655 36.7286C12.1655 36.7286 12.1655 36.8993 11.9962 36.8993H8.41288C8.41288 36.8993 8.24356 36.8994 8.24356 36.7286V33.1302C8.24356 33.1302 8.24356 32.9595 8.41288 32.9595H11.9962C11.9962 32.9595 12.1655 32.9595 12.1655 33.1302V36.7286ZM12.1655 44.6499C12.1655 44.6499 12.1655 44.8207 11.9962 44.8207H8.41288C8.41288 44.8207 8.24356 44.8207 8.24356 44.6499V41.0701C8.24356 41.0701 8.24356 40.8993 8.41288 40.8993H11.9962C11.9962 40.8993 12.1655 40.8993 12.1655 41.0701V44.6499ZM16.1012 40.68C16.1012 40.68 16.1012 40.8508 15.9319 40.8508H12.3554C12.3554 40.8508 12.1861 40.8508 12.1861 40.68V37.0817C12.1861 37.0817 12.1861 36.9109 12.3554 36.9109H15.9319C15.9319 36.9109 16.1012 36.9109 16.1012 37.0817V40.68Z" fill="#ED1D24"/>
</g>
<defs>
<clipPath id="clip0_528_100160">
<rect width="71" height="50" fill="white" transform="translate(0.337891)"/>
</clipPath>
</defs>
</svg>
