<svg width="743" height="886" viewBox="0 0 743 886" fill="none" xmlns="http://www.w3.org/2000/svg">
<g opacity="0.3" filter="url(#filter0_f_244_143960)">
<path fill-rule="evenodd" clip-rule="evenodd" d="M443.086 762C358.507 762 281.675 728.967 224.603 675.158L224.514 675.241C162.671 617.041 124 534.55 124 443C124 351.451 162.671 268.96 224.514 210.76L224.602 210.843C281.653 157.034 358.507 124 443.087 124C508.203 124 568.7 143.587 619.164 177.106L619.164 708.894C568.7 742.435 508.181 762 443.086 762ZM619.164 176.903C705.24 234.073 762 331.888 762 443C762 554.113 705.24 651.928 619.164 709.098L619.164 176.903Z" fill="url(#paint0_linear_244_143960)"/>
</g>
<defs>
<filter id="filter0_f_244_143960" x="0.00012207" y="0.00012207" width="886" height="886" filterUnits="userSpaceOnUse" color-interpolation-filters="sRGB">
<feFlood flood-opacity="0" result="BackgroundImageFix"/>
<feBlend mode="normal" in="SourceGraphic" in2="BackgroundImageFix" result="shape"/>
<feGaussianBlur stdDeviation="62" result="effect1_foregroundBlur_244_143960"/>
</filter>
<linearGradient id="paint0_linear_244_143960" x1="253.682" y1="654.474" x2="649.951" y2="211.447" gradientUnits="userSpaceOnUse">
<stop stop-color="#D295C2"/>
<stop offset="1" stop-color="#AE529F"/>
</linearGradient>
</defs>
</svg>
