<svg width="41" height="41" viewBox="0 0 41 41" fill="none" xmlns="http://www.w3.org/2000/svg">
<path fill-rule="evenodd" clip-rule="evenodd" d="M20.5065 41.0041C15.0712 41.0041 10.1337 38.8813 6.46604 35.4233L6.46035 35.4287C2.4861 31.6886 0.00098547 26.3874 0.000985984 20.5041C0.000986498 14.6209 2.48611 9.31972 6.46036 5.57959L6.46599 5.5849C10.1323 2.12694 15.0711 0.0040909 20.5065 0.00409138C24.6911 0.00409174 28.5788 1.2628 31.8219 3.41685L31.8219 37.5913C28.5788 39.7468 24.6897 41.0041 20.5065 41.0041ZM31.8219 3.40371C37.3534 7.07765 41.001 13.3636 41.001 20.504C41.001 27.6445 37.3534 33.9304 31.8219 37.6044L31.8219 3.40371Z" fill="url(#paint0_linear_244_128914)"/>
<defs>
<linearGradient id="paint0_linear_244_128914" x1="20.501" y1="41.0041" x2="20.501" y2="0.00409138" gradientUnits="userSpaceOnUse">
<stop/>
<stop offset="0.555" stop-color="#AE529F"/>
<stop offset="1"/>
</linearGradient>
</defs>
</svg>
