<svg width="914" height="1137" viewBox="0 0 914 1137" fill="none" xmlns="http://www.w3.org/2000/svg">
<g opacity="0.5" filter="url(#filter0_f_244_128896)">
<path fill-rule="evenodd" clip-rule="evenodd" d="M345.62 1013C227.766 1013 120.707 966.971 41.1814 891.992L41.0581 892.108C-45.1153 811.012 -99 696.067 -99 568.501C-98.9999 440.934 -45.1153 325.99 41.0581 244.893L41.1807 245.008C120.677 170.03 227.766 124 345.62 124C436.354 124 520.652 151.293 590.97 197.999L590.97 939.002C520.652 985.737 436.324 1013 345.62 1013ZM590.97 197.715C710.91 277.377 790 413.674 790 568.501C790 723.327 710.91 859.624 590.97 939.286L590.97 197.715Z" fill="url(#paint0_linear_244_128896)"/>
</g>
<defs>
<filter id="filter0_f_244_128896" x="-223" y="0.00012207" width="1137" height="1137" filterUnits="userSpaceOnUse" color-interpolation-filters="sRGB">
<feFlood flood-opacity="0" result="BackgroundImageFix"/>
<feBlend mode="normal" in="SourceGraphic" in2="BackgroundImageFix" result="shape"/>
<feGaussianBlur stdDeviation="62" result="effect1_foregroundBlur_244_128896"/>
</filter>
<linearGradient id="paint0_linear_244_128896" x1="790" y1="124" x2="937.35" y2="780.336" gradientUnits="userSpaceOnUse">
<stop stop-color="#AE529F"/>
<stop offset="1" stop-color="#1E1E1E"/>
</linearGradient>
</defs>
</svg>
