<svg width="655" height="851" viewBox="0 0 655 851" fill="none" xmlns="http://www.w3.org/2000/svg">
<g opacity="0.2" filter="url(#filter0_f_103_98557)">
<path fill-rule="evenodd" clip-rule="evenodd" d="M228.988 697C157.002 697 91.6106 668.886 43.0364 623.088L42.9615 623.159C-9.67318 573.625 -42.5859 503.417 -42.5859 425.5C-42.5858 347.582 -9.67315 277.374 42.9615 227.84L43.0371 227.911C91.593 182.115 157.003 154 228.988 154C284.408 154 335.898 170.67 378.848 199.198L378.848 651.802C335.897 680.349 284.39 697 228.988 697ZM378.848 199.025C452.107 247.682 500.415 330.932 500.415 425.5C500.415 520.068 452.107 603.318 378.848 651.975L378.848 199.025Z" fill="url(#paint0_linear_103_98557)"/>
</g>
<defs>
<filter id="filter0_f_103_98557" x="-196.586" y="0" width="851.001" height="851" filterUnits="userSpaceOnUse" color-interpolation-filters="sRGB">
<feFlood flood-opacity="0" result="BackgroundImageFix"/>
<feBlend mode="normal" in="SourceGraphic" in2="BackgroundImageFix" result="shape"/>
<feGaussianBlur stdDeviation="77" result="effect1_foregroundBlur_103_98557"/>
</filter>
<linearGradient id="paint0_linear_103_98557" x1="500.415" y1="154" x2="590.416" y2="554.889" gradientUnits="userSpaceOnUse">
<stop stop-color="#AE529F"/>
<stop offset="1" stop-color="#C1FBF3"/>
</linearGradient>
</defs>
</svg>
