<svg width="18" height="18" viewBox="0 0 18 18" fill="none" xmlns="http://www.w3.org/2000/svg">
<path d="M13.9215 4.5V11.8125C13.9215 11.9244 13.8771 12.0317 13.798 12.1108C13.7189 12.1899 13.6116 12.2344 13.4997 12.2344C13.3878 12.2344 13.2805 12.1899 13.2014 12.1108C13.1222 12.0317 13.0778 11.9244 13.0778 11.8125V5.51953L4.79498 13.7953C4.71666 13.8736 4.61043 13.9176 4.49967 13.9176C4.3889 13.9176 4.28268 13.8736 4.20435 13.7953C4.12603 13.717 4.08203 13.6108 4.08203 13.5C4.08203 13.3892 4.12603 13.283 4.20435 13.2047L12.4801 4.92188H6.18717C6.07528 4.92188 5.96797 4.87743 5.88886 4.79831C5.80974 4.71919 5.76529 4.61189 5.76529 4.5C5.76529 4.38811 5.80974 4.28081 5.88886 4.20169C5.96797 4.12257 6.07528 4.07813 6.18717 4.07812H13.4997C13.6116 4.07813 13.7189 4.12257 13.798 4.20169C13.8771 4.28081 13.9215 4.38811 13.9215 4.5Z" fill="#FEFEFE"/>
</svg>
