<svg width="20" height="20" viewBox="0 0 20 20" fill="none" xmlns="http://www.w3.org/2000/svg">
<path d="M15.4689 5V13.125C15.4689 13.2493 15.4195 13.3685 15.3316 13.4565C15.2437 13.5444 15.1245 13.5938 15.0002 13.5938C14.8759 13.5938 14.7566 13.5444 14.6687 13.4565C14.5808 13.3685 14.5314 13.2493 14.5314 13.125V6.13281L5.3283 15.3281C5.24127 15.4151 5.12324 15.464 5.00017 15.464C4.8771 15.464 4.75907 15.4151 4.67205 15.3281C4.58502 15.2411 4.53613 15.1231 4.53613 15C4.53613 14.8769 4.58502 14.7589 4.67205 14.6719L13.8674 5.46875H6.87517C6.75085 5.46875 6.63162 5.41936 6.54372 5.33146C6.45581 5.24355 6.40642 5.12432 6.40642 5C6.40642 4.87568 6.45581 4.75645 6.54372 4.66854C6.63162 4.58064 6.75085 4.53125 6.87517 4.53125H15.0002C15.1245 4.53125 15.2437 4.58064 15.3316 4.66854C15.4195 4.75645 15.4689 4.87568 15.4689 5Z" fill="#D7DC4D"/>
</svg>
