<svg width="664" height="843" viewBox="0 0 664 843" fill="none" xmlns="http://www.w3.org/2000/svg">
<g opacity="0.2" filter="url(#filter0_f_103_140068)">
<path fill-rule="evenodd" clip-rule="evenodd" d="M242.414 739C326.596 739 403.066 706.122 459.87 652.566L459.958 652.649C521.511 594.723 560 512.62 560 421.501C560 330.382 521.511 248.279 459.958 190.352L459.871 190.435C403.088 136.878 326.596 104 242.414 104C177.604 104 117.391 123.495 67.1642 156.856L67.1643 686.144C117.391 719.527 177.626 739 242.414 739ZM67.1641 156.653C-18.5069 213.554 -75 310.909 -75 421.499C-75 532.09 -18.5068 629.445 67.1641 686.346L67.1641 156.653Z" fill="url(#paint0_linear_103_140068)"/>
</g>
<defs>
<filter id="filter0_f_103_140068" x="-179" y="0" width="843" height="843" filterUnits="userSpaceOnUse" color-interpolation-filters="sRGB">
<feFlood flood-opacity="0" result="BackgroundImageFix"/>
<feBlend mode="normal" in="SourceGraphic" in2="BackgroundImageFix" result="shape"/>
<feGaussianBlur stdDeviation="52" result="effect1_foregroundBlur_103_140068"/>
</filter>
<linearGradient id="paint0_linear_103_140068" x1="-75.0001" y1="104" x2="-180.25" y2="572.811" gradientUnits="userSpaceOnUse">
<stop stop-color="#1E1E1E"/>
<stop offset="1" stop-color="#AE529F"/>
</linearGradient>
</defs>
</svg>
