<svg width="1005" height="1597" viewBox="0 0 1005 1597" fill="none" xmlns="http://www.w3.org/2000/svg">
<g opacity="0.4" filter="url(#filter0_f_103_138206)">
<path fill-rule="evenodd" clip-rule="evenodd" d="M798.64 1323C659.574 1323 533.247 1268.69 439.409 1180.21L439.265 1180.35C337.583 1084.66 274 949.024 274 798.498C274 647.973 337.583 512.341 439.265 416.649L439.41 416.785C533.213 328.313 659.575 274 798.64 274C905.704 274 1005.17 306.205 1088.15 361.317L1088.15 1235.68C1005.17 1290.83 905.669 1323 798.64 1323ZM1088.15 360.981C1229.68 454.98 1323 615.808 1323 798.5C1323 981.191 1229.68 1142.02 1088.15 1236.02L1088.15 360.981Z" fill="url(#paint0_linear_103_138206)"/>
</g>
<defs>
<filter id="filter0_f_103_138206" x="0" y="0" width="1597" height="1597" filterUnits="userSpaceOnUse" color-interpolation-filters="sRGB">
<feFlood flood-opacity="0" result="BackgroundImageFix"/>
<feBlend mode="normal" in="SourceGraphic" in2="BackgroundImageFix" result="shape"/>
<feGaussianBlur stdDeviation="137" result="effect1_foregroundBlur_103_138206"/>
</filter>
<linearGradient id="paint0_linear_103_138206" x1="1323" y1="274" x2="1496.87" y2="1048.46" gradientUnits="userSpaceOnUse">
<stop stop-color="#1E1E1E"/>
<stop offset="1" stop-color="#AE529F"/>
</linearGradient>
</defs>
</svg>
