<svg width="653" height="932" viewBox="0 0 653 932" fill="none" xmlns="http://www.w3.org/2000/svg">
<g style="mix-blend-mode:color-dodge" opacity="0.4" filter="url(#filter0_f_321_345769)">
<path fill-rule="evenodd" clip-rule="evenodd" d="M186.427 174C263.717 174 333.927 204.186 386.08 253.357L386.16 253.282C442.673 306.465 478.011 381.847 478.011 465.505C478.011 549.164 442.673 624.546 386.16 677.729L386.08 677.654C333.946 726.825 263.717 757.011 186.427 757.011C126.923 757.011 71.6404 739.112 25.5254 708.482V222.529C71.6404 191.879 126.943 174 186.427 174ZM25.5249 708.668C-53.132 656.426 -105 567.041 -105 465.506C-105 363.97 -53.132 274.585 25.5249 222.343V708.668Z" fill="url(#paint0_linear_321_345769)"/>
</g>
<defs>
<filter id="filter0_f_321_345769" x="-279" y="0" width="931.012" height="931.011" filterUnits="userSpaceOnUse" color-interpolation-filters="sRGB">
<feFlood flood-opacity="0" result="BackgroundImageFix"/>
<feBlend mode="normal" in="SourceGraphic" in2="BackgroundImageFix" result="shape"/>
<feGaussianBlur stdDeviation="87" result="effect1_foregroundBlur_321_345769"/>
</filter>
<linearGradient id="paint0_linear_321_345769" x1="359.507" y1="272.258" x2="-2.60827" y2="677.101" gradientUnits="userSpaceOnUse">
<stop stop-color="#D295C2"/>
<stop offset="1" stop-color="#AE529F"/>
</linearGradient>
</defs>
</svg>
