<svg width="757" height="932" viewBox="0 0 757 932" fill="none" xmlns="http://www.w3.org/2000/svg">
<g style="mix-blend-mode:color-dodge" opacity="0.4" filter="url(#filter0_f_103_144967)">
<path fill-rule="evenodd" clip-rule="evenodd" d="M465.841 174C543.131 174 613.341 204.186 665.494 253.357L665.574 253.282C722.087 306.465 757.425 381.847 757.425 465.505C757.425 549.164 722.087 624.546 665.574 677.729L665.494 677.654C613.36 726.825 543.131 757.011 465.841 757.011C406.337 757.011 351.054 739.112 304.939 708.482V222.529C351.054 191.879 406.357 174 465.841 174ZM304.939 708.668C226.282 656.426 174.414 567.041 174.414 465.506C174.414 363.97 226.282 274.585 304.939 222.343V708.668Z" fill="url(#paint0_linear_103_144967)"/>
</g>
<defs>
<filter id="filter0_f_103_144967" x="0.414062" y="0" width="931.012" height="931.011" filterUnits="userSpaceOnUse" color-interpolation-filters="sRGB">
<feFlood flood-opacity="0" result="BackgroundImageFix"/>
<feBlend mode="normal" in="SourceGraphic" in2="BackgroundImageFix" result="shape"/>
<feGaussianBlur stdDeviation="87" result="effect1_foregroundBlur_103_144967"/>
</filter>
<linearGradient id="paint0_linear_103_144967" x1="638.921" y1="272.258" x2="276.806" y2="677.101" gradientUnits="userSpaceOnUse">
<stop stop-color="#D295C2"/>
<stop offset="1" stop-color="#AE529F"/>
</linearGradient>
</defs>
</svg>
