<svg width="120" height="120" viewBox="0 0 120 120" fill="none" xmlns="http://www.w3.org/2000/svg">
<path fill-rule="evenodd" clip-rule="evenodd" d="M59.5216 119.011C43.7444 119.011 29.4123 112.849 18.7661 102.812L18.7497 102.827C7.21358 91.9706 3.70919e-06 76.5829 5.20215e-06 59.5055C6.6951e-06 42.4281 7.21359 27.0403 18.7497 16.1839L18.7661 16.1993C29.4083 6.1619 43.7444 -8.2874e-05 59.5216 -8.14947e-05C71.6683 -8.04328e-05 82.9533 3.65359 92.3668 9.90615L92.3668 9.86822C108.423 20.5326 119.011 38.7788 119.011 59.5055C119.011 80.2322 108.423 98.4784 92.3668 109.143L92.3668 109.105C82.9533 115.361 71.6643 119.011 59.5216 119.011Z" fill="url(#paint0_linear_103_96639)"/>
<defs>
<linearGradient id="paint0_linear_103_96639" x1="59.5056" y1="119.011" x2="59.5056" y2="1.00566e-05" gradientUnits="userSpaceOnUse">
<stop stop-color="#0A0019"/>
<stop offset="0.348787" stop-color="#36004B"/>
<stop offset="0.555" stop-color="#300A2C"/>
<stop offset="0.733052" stop-color="#390B30"/>
<stop offset="1" stop-color="#0A0019"/>
</linearGradient>
</defs>
</svg>
