<svg width="615" height="851" viewBox="0 0 615 851" fill="none" xmlns="http://www.w3.org/2000/svg">
<g opacity="0.2" filter="url(#filter0_f_103_96633)">
<path fill-rule="evenodd" clip-rule="evenodd" d="M188.988 697C117.002 697 51.6107 668.886 3.03651 623.089L2.96177 623.159C-49.6729 573.625 -82.5856 503.417 -82.5855 425.5C-82.5855 347.582 -49.6728 277.374 2.9618 227.84L3.03718 227.911C51.5931 182.115 117.003 154 188.988 154C244.408 154 295.897 170.67 338.848 199.198L338.848 651.802C295.897 680.349 244.39 697 188.988 697ZM338.848 199.025C412.107 247.682 460.415 330.932 460.415 425.5C460.415 520.068 412.107 603.318 338.848 651.975L338.848 199.025Z" fill="url(#paint0_linear_103_96633)"/>
</g>
<defs>
<filter id="filter0_f_103_96633" x="-236.586" y="6.10352e-05" width="851.001" height="851" filterUnits="userSpaceOnUse" color-interpolation-filters="sRGB">
<feFlood flood-opacity="0" result="BackgroundImageFix"/>
<feBlend mode="normal" in="SourceGraphic" in2="BackgroundImageFix" result="shape"/>
<feGaussianBlur stdDeviation="77" result="effect1_foregroundBlur_103_96633"/>
</filter>
<linearGradient id="paint0_linear_103_96633" x1="460.415" y1="154" x2="550.416" y2="554.889" gradientUnits="userSpaceOnUse">
<stop stop-color="#AE529F"/>
<stop offset="1" stop-color="#C1FBF3"/>
</linearGradient>
</defs>
</svg>
