<svg width="66" height="66" viewBox="0 0 66 66" fill="none" xmlns="http://www.w3.org/2000/svg">
<path fill-rule="evenodd" clip-rule="evenodd" d="M33.0089 66.0001C24.2593 66.0001 16.3111 62.5828 10.4071 57.0163L10.398 57.0249C4.00042 51.0042 -1.32018e-05 42.4706 -1.23738e-05 33C-1.15459e-05 23.5294 4.00042 14.9958 10.398 8.97511L10.4072 8.98375C16.309 3.4173 24.2593 7.26449e-05 33.0089 7.34098e-05C39.7451 7.39987e-05 46.0034 2.02629 51.2239 5.49377L51.2239 60.5064C46.0034 63.9761 39.7428 66.0001 33.0089 66.0001ZM51.2239 5.47275C60.1283 11.3869 66 21.5057 66 33.0001C66 44.4945 60.1283 54.6133 51.2239 60.5275L51.2239 5.47275Z" fill="url(#paint0_linear_103_96645)"/>
<defs>
<linearGradient id="paint0_linear_103_96645" x1="66" y1="0" x2="76.9394" y2="48.7268" gradientUnits="userSpaceOnUse">
<stop stop-color="#1E1E1E"/>
<stop offset="1" stop-color="#AE529F"/>
</linearGradient>
</defs>
</svg>
