<svg width="689" height="843" viewBox="0 0 689 843" fill="none" xmlns="http://www.w3.org/2000/svg">
<g opacity="0.2" filter="url(#filter0_f_103_96651)">
<path fill-rule="evenodd" clip-rule="evenodd" d="M421.586 739C337.404 739 260.934 706.122 204.13 652.566L204.042 652.649C142.489 594.723 104 512.62 104 421.501C104 330.382 142.489 248.279 204.042 190.352L204.129 190.435C260.912 136.878 337.404 104 421.586 104C486.396 104 546.609 123.495 596.836 156.856L596.836 686.144C546.609 719.527 486.374 739 421.586 739ZM596.836 156.653C682.507 213.554 739 310.909 739 421.499C739 532.09 682.507 629.445 596.836 686.346L596.836 156.653Z" fill="url(#paint0_linear_103_96651)"/>
</g>
<defs>
<filter id="filter0_f_103_96651" x="9.15527e-05" y="9.15527e-05" width="843" height="843" filterUnits="userSpaceOnUse" color-interpolation-filters="sRGB">
<feFlood flood-opacity="0" result="BackgroundImageFix"/>
<feBlend mode="normal" in="SourceGraphic" in2="BackgroundImageFix" result="shape"/>
<feGaussianBlur stdDeviation="52" result="effect1_foregroundBlur_103_96651"/>
</filter>
<linearGradient id="paint0_linear_103_96651" x1="739" y1="104" x2="844.25" y2="572.811" gradientUnits="userSpaceOnUse">
<stop stop-color="#1E1E1E"/>
<stop offset="1" stop-color="#AE529F"/>
</linearGradient>
</defs>
</svg>
