<svg width="120" height="120" viewBox="0 0 120 120" fill="none" xmlns="http://www.w3.org/2000/svg">
<path fill-rule="evenodd" clip-rule="evenodd" d="M60.4785 119.011C76.2558 119.011 90.5878 112.849 101.234 102.811L101.25 102.827C112.787 91.9705 120 76.5827 120 59.5053C120 42.4279 112.787 27.0402 101.25 16.1837L101.234 16.1992C90.5918 6.16177 76.2558 -0.000204944 60.4785 -0.000203565C48.3318 -0.000202503 37.0468 3.65347 27.6333 9.90603L27.6333 9.86809C11.5769 20.5325 0.989018 38.7787 0.98902 59.5054C0.989022 80.2321 11.5769 98.4783 27.6333 109.143L27.6333 109.105C37.0468 115.361 48.3359 119.011 60.4785 119.011Z" fill="url(#paint0_linear_103_140062)"/>
<defs>
<linearGradient id="paint0_linear_103_140062" x1="60.4946" y1="119.011" x2="60.4945" y2="-0.000112014" gradientUnits="userSpaceOnUse">
<stop stop-color="#0A0019"/>
<stop offset="0.348787" stop-color="#36004B"/>
<stop offset="0.555" stop-color="#300A2C"/>
<stop offset="0.733052" stop-color="#390B30"/>
<stop offset="1" stop-color="#0A0019"/>
</linearGradient>
</defs>
</svg>
