<svg width="41" height="41" viewBox="0 0 41 41" fill="none" xmlns="http://www.w3.org/2000/svg">
<path fill-rule="evenodd" clip-rule="evenodd" d="M20.5055 41.0002C15.0702 41.0002 10.1327 38.8774 6.46506 35.4194L6.45938 35.4248C2.48513 31.6847 8.90722e-06 26.3835 9.42155e-06 20.5002C9.93588e-06 14.617 2.48513 9.31582 6.45938 5.5757L6.46501 5.58101C10.1313 2.12304 15.0702 0.000199912 20.5055 0.000200387C24.6901 0.000200753 28.5779 1.25891 31.8209 3.41296L31.8209 37.5874C28.5779 39.7429 24.6887 41.0002 20.5055 41.0002ZM31.8209 3.39982C37.3524 7.07376 41 13.3597 41 20.5002C41 27.6406 37.3524 33.9265 31.8209 37.6005L31.8209 3.39982Z" fill="url(#paint0_linear_103_136271)"/>
<defs>
<linearGradient id="paint0_linear_103_136271" x1="8.33379" y1="34.0902" x2="33.7994" y2="5.61979" gradientUnits="userSpaceOnUse">
<stop stop-color="#D295C2"/>
<stop offset="1" stop-color="#AE529F"/>
</linearGradient>
</defs>
</svg>
