<svg width="640" height="851" viewBox="0 0 640 851" fill="none" xmlns="http://www.w3.org/2000/svg">
<g opacity="0.4" filter="url(#filter0_f_103_125914)">
<path fill-rule="evenodd" clip-rule="evenodd" d="M426.012 697C497.998 697 563.389 668.886 611.964 623.088L612.039 623.159C664.673 573.625 697.586 503.417 697.586 425.5C697.586 347.582 664.673 277.374 612.039 227.84L611.963 227.911C563.407 182.115 497.997 154 426.012 154C370.592 154 319.102 170.67 276.152 199.198L276.152 651.802C319.103 680.349 370.61 697 426.012 697ZM276.152 199.025C202.893 247.682 154.585 330.932 154.585 425.5C154.585 520.068 202.893 603.318 276.152 651.975L276.152 199.025Z" fill="url(#paint0_linear_103_125914)"/>
</g>
<defs>
<filter id="filter0_f_103_125914" x="0.584961" y="0" width="851.001" height="851" filterUnits="userSpaceOnUse" color-interpolation-filters="sRGB">
<feFlood flood-opacity="0" result="BackgroundImageFix"/>
<feBlend mode="normal" in="SourceGraphic" in2="BackgroundImageFix" result="shape"/>
<feGaussianBlur stdDeviation="77" result="effect1_foregroundBlur_103_125914"/>
</filter>
<linearGradient id="paint0_linear_103_125914" x1="154.585" y1="154" x2="64.584" y2="554.889" gradientUnits="userSpaceOnUse">
<stop stop-color="#AE529F"/>
<stop offset="1" stop-color="#C1FBF3"/>
</linearGradient>
</defs>
</svg>
